<svg id="Capa_1" data-name="Capa 1" xmlns="http://www.w3.org/2000/svg" viewBox="0 0 335.67 335.67"><defs><style>.cls-1{fill:#201b16;}.cls-2{fill:#f5f2e5;}</style></defs><path class="cls-1" d="M165.93,27.89a31.49,31.49,0,0,0-.08,3.84c0,1.95.05,5.7,0,8.33s0,6.76.06,9.17S166,54.69,166,56s.06,2.56.1,2.76c.1.42.88.51,1.22.13s.27-3,0-11.69c-.09-2.7-.18-7.48-.21-10.67-.07-8.45-.09-8.75-.62-8.85a.51.51,0,0,0-.59.21Z"/><path class="cls-1" d="M181.41,29.71c-.06.09-.44,2.39-.84,5.1-1,6.94-2.28,14.1-4.77,27.23-.57,3-1.25,7-1.5,8.89-.46,3.41-1.11,7.06-1.49,8.48a1.84,1.84,0,0,0,0,1.16.52.52,0,0,1-.05.63.53.53,0,0,0,.43.9c.34,0,.42-.18.42-.69,0-.36.08-.65.17-.64s.23-.15.29-.33a73.55,73.55,0,0,0,1.62-8.61c.26-2,1.2-7.51,2.07-12.29,2.05-11.22,3.33-18.73,4.08-23.92l.72-4.87a1.53,1.53,0,0,0-.09-.95c-.27-.29-.86-.34-1-.09Z"/><path class="cls-1" d="M151.62,34.1a5.29,5.29,0,0,0,.23,1.26c.57,2,3.42,21.64,3.92,27,.12,1.26.25,2.49.28,2.72a.65.65,0,0,0,1,.52c.61-.46.49-1.57-1.63-14.61C154,42,152.86,35.77,152.52,34.56c-.21-.79-.87-1.12-.9-.46Z"/><path class="cls-1" d="M193.35,36.92c-2.49,6.52-9.14,28.07-8.84,28.61a.67.67,0,0,0,.49.22c.53,0,1-1.4,2.88-8.23,1.6-5.91,3.09-10.81,5.4-17.66.7-2.09,1.28-3.88,1.28-4s-.17-.18-.37-.19-.49.28-.84,1.22Z"/><path class="cls-1" d="M214.72,46.78c-.19.41-.54,1.15-.78,1.7s-1.11,2.28-1.92,3.89-2.35,5-3.43,7.61c-2,4.75-4.87,11.05-8.45,18.53-5.47,11.4-7.34,15.44-7.39,16s0,.61.38.68c.53.1.4.33,4.58-8.51,8.3-17.61,9.43-20.14,11.85-26.34a115.09,115.09,0,0,1,4.57-10.61,29.45,29.45,0,0,0,1.46-3.32c0-.6-.52-.36-.87.38Z"/><path class="cls-1" d="M223.73,54.65c-1.22,2.18-3.5,6.29-5.09,9.19-3.95,7.22-7.14,12.89-11.35,20.18s-10.69,19.25-10.72,19.76c0,.2.11.37.27.37s3.42-5.49,16.95-29.48c6.46-11.47,13-23.46,12.85-23.69-.35-.63-.82,0-2.91,3.67Z"/><path class="cls-1" d="M136.36,49.62c-.25.29.37,2.29,3.81,12.25,1,2.84,2.87,9,4.19,13.6,2.21,7.75,2.44,8.44,2.82,8.4a.57.57,0,0,0,.5-.45c.09-.45-2.46-10-4-15.11-.55-1.78-1.86-5.75-2.92-8.8s-2.22-6.49-2.58-7.6a22.3,22.3,0,0,0-.85-2.29.55.55,0,0,0-.93,0Z"/><path class="cls-1" d="M235.77,61a119.52,119.52,0,0,0-10.05,15c-1.21,2.1-3.22,5.45-4.49,7.48s-3.41,5.56-4.75,7.85-2.92,4.93-3.49,5.86a11.34,11.34,0,0,0-1.06,2,.7.7,0,0,0,.85.64q.5-.18,5.06-7.81c1-1.65,3-4.88,4.42-7.17s3.75-6.08,5.12-8.42a108.75,108.75,0,0,1,8.14-12.31c2.57-3.47,2.93-4,2.76-4.4-.43-.89-1.05-.56-2.51,1.32Z"/><path class="cls-1" d="M196.83,58.28c-.2.3-2.86,6.22-4.14,9.23-2.58,6-8.83,22.66-8.87,23.57,0,.07.1.12.24.13s1.67-3.73,3.87-9.52c4.34-11.43,5.3-13.84,7.58-18.93,1-2.15,1.78-4,1.82-4.18s-.33-.54-.5-.3Z"/><path class="cls-1" d="M87.8,54.84a.57.57,0,0,0,.12.57l3.8,5.05a43.13,43.13,0,0,0,3.76,4.63.51.51,0,0,0,.28-.35c.08-.34-7.12-9.93-7.53-10a.4.4,0,0,0-.43.13Z"/><path class="cls-1" d="M166.29,61.2c-.22.24-.22.36,0,.63.41.45,1,.23.92-.35s-.57-.7-1-.28Z"/><path class="cls-1" d="M122.69,59.38a.82.82,0,0,0-.16.48c0,.19,1.76,3.65,3.93,7.67s4.58,8.55,5.34,10,1.46,2.75,1.54,2.81c.29.2.79-.13.8-.53s-.86-2.31-6-12c-4.29-8-4.9-8.93-5.4-8.5Z"/><path class="cls-1" d="M107.84,60.46c-.17.37,3.28,6,7.14,11.69,5.34,7.86,11.1,16.21,13.26,19.24,1.18,1.65,2.55,3.61,3,4.37.89,1.33,1.47,1.72,1.72,1.15.18-.4-.51-1.51-3.87-6.27-1.65-2.33-3.53-5-4.18-6s-3.39-4.86-6.06-8.65c-4.28-6.08-7.36-10.73-9.68-14.66-.7-1.17-1.14-1.46-1.38-.9Z"/><path class="cls-1" d="M73.69,62.37a7.59,7.59,0,0,0,1.54,2.12c.92,1,2.74,3.15,4,4.69s3.37,3.95,4.61,5.38,3.43,4,4.89,5.82a34.52,34.52,0,0,0,2.91,3.3c.53.15.53-.54,0-1.3-.69-1-4.42-5.41-8.54-10.08-1.85-2.1-4.56-5.22-6.06-7a27,27,0,0,0-3-3.17.58.58,0,0,0-.41.2Z"/><path class="cls-1" d="M166.38,66.61a70.27,70.27,0,0,0-.37,8.52c.05,1.12.13,1.41.41,1.47s.36-.25.57-4.76c.16-3.5.16-4.91,0-5.09s-.42-.31-.61-.14Z"/><path class="cls-1" d="M155.77,70.31a86.15,86.15,0,0,0,1.24,11,.62.62,0,0,0,1.06,0,97.46,97.46,0,0,0-1.21-11,.66.66,0,0,0-1.09,0Z"/><path class="cls-1" d="M260.3,78.68l-7,6.2c-2.28,2-5.85,5.4-7.92,7.5s-5.12,5.07-6.78,6.62l-3,2.82.48.42.48.42,3.22-3c1.78-1.66,4.73-4.56,6.56-6.44s6.56-6.34,10.49-9.87c5.57-5,7.14-6.52,7-6.79a.52.52,0,0,0-.45-.37,18.82,18.82,0,0,0-3.13,2.49Z"/><path class="cls-1" d="M181.24,74.48c-.25.42-2.65,9.1-2.67,9.66s.46.73.72.41A97.7,97.7,0,0,0,182,74.68c-.07-.51-.48-.61-.72-.2Z"/><path class="cls-1" d="M100,71.22c-.08.18,1.18,2,3.26,4.8,1.86,2.47,4.67,6.27,6.24,8.42s3.07,4.14,3.33,4.41c.47.48.91.49.93,0S101.07,71.14,100.51,71a.4.4,0,0,0-.47.2Z"/><path class="cls-1" d="M59.87,72c-.08.18.09.57.42,1l3.11,3.77c1.42,1.72,3.82,4.43,5.39,6.05C72.86,87,82.89,96.86,88,101.64l8.38,7.89c5,4.7,6.2,5.85,9.79,9.06,1.57,1.4,3.91,3.61,5.21,4.92,2.32,2.33,2.91,2.73,3.08,2.06s-3.53-4.31-9-9.14c-1.37-1.21-4-3.66-5.92-5.46s-5.37-5-7.74-7.23c-4.65-4.28-6.09-5.66-14.2-13.58A181.86,181.86,0,0,1,63.26,75.05a27.49,27.49,0,0,0-3-3.36.44.44,0,0,0-.39.29Z"/><path class="cls-1" d="M165,63.52l-.12,2.53-1.28.11c-2.64.22-10.48,1.4-12.61,1.9-1.24.29-2.88.74-3.69,1A52,52,0,0,0,138.38,74l-2.25,1.51L132.83,70a52.55,52.55,0,0,0-3.65-5.67.92.92,0,0,0-1.14.77,9.94,9.94,0,0,0,1.2,2.29c.67,1.06,2.19,3.61,3.38,5.66l2.16,3.75-1.8,2a38.7,38.7,0,0,0-10,26.72c.18,7.43,1.91,11.64,6.94,16.87a26.75,26.75,0,0,0,11.14,6.76,24.86,24.86,0,0,0,7.33,1c1.69,0,1.8,0,2.07-.61.36-.82.2-1-1.55-1.51a21.12,21.12,0,0,1-10.3-8,43.36,43.36,0,0,1-5.86-12.14,19.84,19.84,0,0,1,.85-13.15c1.46-3.71,5.13-7.81,9.23-10.28,2.87-1.74,9.34-3.81,13.46-4.32a35.73,35.73,0,0,1,16.06,1.31c5.6,2,9.6,4.6,12.56,8.18,1.47,1.78,2.11,2.89,3.84,6.61a32.29,32.29,0,0,1,2.31,5.92,24,24,0,0,1-.34,7.41,64.7,64.7,0,0,1-5.24,12.65c-3.67,6.72-6.12,10.34-12.08,17.8-5.82,7.3-8.51,11.26-11.78,17.31a60.24,60.24,0,0,0-6.05,16.91c-.12.8-.29,1.8-.38,2.22l-.15.76-3.84,0c-5.37,0-7.55.14-8.19.66-.48.4-.51.67-.7,6.23l-.2,5.8-2.48,1.25a53.71,53.71,0,0,0-9.9,6.66,41.46,41.46,0,0,0-10.24,12c-5.47,9.3-7.7,17.91-8.73,33.78a120.26,120.26,0,0,0,.43,23.5c.12.87.1.88-1,1.11a2.83,2.83,0,0,0-1.75,1c-1.37,1.68-1.58,3.37-1,8.19.71,6.14,1.3,6.41,15.22,7.06,8.09.38,21.34.67,30,.66,14.76,0,39,.34,46.38.69,4.58.22,12.15.22,15.75,0,2.94-.18,4.49-.81,6.19-2.51a7.8,7.8,0,0,0,2.23-7.27,13.82,13.82,0,0,1-.25-3,6.08,6.08,0,0,0-.18-2.05,5.24,5.24,0,0,0-2.59-2.51l-.91-.29.27-5.9c.61-13-.1-24.06-2.13-33.32a77.06,77.06,0,0,0-8-21,46.55,46.55,0,0,0-10.23-11.94,39,39,0,0,0-7.42-4.86l-1.6-.68.19-4c.21-4.54.05-6.68-.58-7.6-.42-.62-.53-.64-5.27-1.14-2.65-.28-5.23-.54-5.72-.57l-.89-.07L178,176c.89-6,4.91-15.33,11.46-26.51,5.31-9.05,10.17-17.93,11.31-20.64a80.56,80.56,0,0,0,5.92-20.76c.88-7.16.12-11.83-2.79-17.18-.44-.81-1.25-2.52-1.81-3.79a22.2,22.2,0,0,0-4.84-7.32c-2.35-2.46-4.81-4.25-9.52-6.92A57.84,57.84,0,0,0,176,67.57a25,25,0,0,0-6.62-1.17l-3.86-.31.2-2.46c.18-2.19.16-2.47-.22-2.55s-.44.15-.54,2.44Zm1.68,4.3a.51.51,0,0,1-.47,0c-.19-.09-.14-.14.16-.14s.39.06.31.13Zm3.18.18a6,6,0,0,1-1.34-.07c-.37-.07-.06-.1.67-.06s1,.09.67.13Zm2.3.35a.92.92,0,0,1-.61,0c-.17-.08,0-.12.31-.11s.47.08.3.14Zm1.32.28a.51.51,0,0,1-.47,0c-.19-.08-.14-.14.16-.14s.39.07.31.14Zm2.18.71c.55.19,1,.39.92.44a9,9,0,0,1-2.79-.94c0-.07.18-.06.42,0l1.45.48Zm-18.8-.51a.46.46,0,0,1-.46,0c-.2-.08-.14-.13.15-.14s.39.07.31.14Zm-1,.2a.49.49,0,0,1-.46,0c-.2-.08-.14-.14.15-.14s.39.07.31.14Zm7.68.63a5.14,5.14,0,0,1-1.22-.06c-.37-.07-.13-.1.55-.07s1,.09.67.13Zm5.73.26a5.46,5.46,0,0,1-1.34-.06c-.37-.07-.06-.1.67-.06s1,.09.67.12ZM179.35,71a3.66,3.66,0,0,1,.9.6,15.69,15.69,0,0,1-2.86-1.39c-.22-.23,1.08.3,2,.79Zm-7-.63a1.12,1.12,0,0,0,.8.15l.67-.07-.74.32-.75.32.85.05c.47,0,1.54.16,2.39.3,1.19.18,1.6.16,1.78-.09s.23-.26.22.06c0,.55-1.11.66-2.68.27-1-.25-1.32-.25-1.49,0a.34.34,0,0,1-.52.08,3.49,3.49,0,0,0-1.15-.35c-1-.15-1.32-.36-.45-.32s1-.3.05-.65l-.91-.32.9,0a1.77,1.77,0,0,1,1,.23Zm-2.94.37c1.09.22,1,.24-1,.18a9,9,0,0,1-2.55-.32c-.43-.31,1.72-.22,3.53.14Zm-2.71.63c-.54.13-.3.17.84.17s1.41,0,1,.18-.2.16.73.11c.74,0,1.27,0,1.17.08a49,49,0,0,1-5.49,0,41.81,41.81,0,0,0-7.38.13,11.16,11.16,0,0,1-2.14.22c-.31-.33,8.77-1.18,11.31-1.06l.73,0-.74.17Zm15.2,1.34c0,.06-.22,0-.48-.17s-.47-.35-.47-.41.22,0,.48.16.47.35.47.42ZM157,71.28a.49.49,0,0,1-.46,0c-.2-.08-.14-.13.15-.14s.39.07.31.14Zm21.48,1.14c-.25.14-.23.19.09.21s.42.12.41.25.18.17.4.1.35,0,.23.15-.07.28.1.28.24.07.17.13a4.73,4.73,0,0,1-1.58-.64l-1.46-.77,1,.05c.63,0,.87.11.65.24ZM149,71.09a6.26,6.26,0,0,1-.73.34c-.6.26-.6.25-.14-.08s1.22-.54.87-.26Zm2.1.51c-.75.25-1.33.33-1.45.19s.23-.31.87-.42c1.7-.3,1.9-.22.58.23Zm20.21.7a3.22,3.22,0,0,1-1.1.15c-.55,0-.54-.06.13-.2,1-.22,1.59-.19,1,0Zm1.27.19a.51.51,0,0,1-.47,0c-.19-.09-.14-.14.15-.14s.4.06.32.13Zm3.71.51a3.53,3.53,0,0,1,.94.66,9.84,9.84,0,0,1-2.12-1.1c-.27-.27.32,0,1.18.44ZM184,74.1A43.18,43.18,0,0,1,189.79,78c1.37,1.08,2,1.71,1.82,1.87s-.44.09-.84-.2a2.68,2.68,0,0,0-1.15-.48c-.39,0-.43-.08-.14-.15.59-.13-1-1.75-2.56-2.66-.67-.38-1.14-.78-1-.89s0-.12-.26,0-.39.05-.27-.13,0-.21-.41-.13-.48.07-.25-.07.1-.31-.57-.61a1.75,1.75,0,0,0-1.69-.13,1.55,1.55,0,0,1-.94.13c-.08-.09-.34,0-.59.17-.4.29-.41.28-.09-.09a1.22,1.22,0,0,1,.91-.39c.78,0,1.37-.18,1.22-.46a.25.25,0,0,0-.35-.1c-.13.07-.23-.06-.22-.28s-.05-.35-.43-.09-.41.28-.08-.1.41-.37,1.14.24a3.74,3.74,0,0,0,.95.65Zm-10.42-1.32a.49.49,0,0,1-.46,0c-.2-.09-.15-.14.15-.14s.39.06.31.13ZM149.32,72c.07.13-.09.16-.35.08-.56-.17-.61-.34-.11-.32a.58.58,0,0,1,.46.24Zm-1.94.38c-.08.07-.27,0-.43-.18s-.2-.28.14-.14.37.24.29.32Zm7.6.06a.52.52,0,0,1-.46,0c-.2-.09-.14-.14.15-.14s.39.06.31.14Zm23.9,2.31s-.14.17-.29.25-.21.06-.08-.13.09-.27-.26-.17a1.16,1.16,0,0,1-.82-.15c-.27-.21-.21-.23.22-.09s.53.1.41-.12-.05-.22.33,0,.5.34.49.4Zm13.81,3.62c1.77,1.29,2.07,1.64,1.39,1.61a10.07,10.07,0,0,1-2.5-1.68c-1.11-.91-2.5-2-3.09-2.37a4.62,4.62,0,0,1-1.07-.83,37,37,0,0,1,5.27,3.27Zm-12.86-3c0,.11-.22.13-.49,0s-.42-.24-.34-.35.85,0,.83.3Zm1.32.55c.23.28.36.51.29.51a2.27,2.27,0,0,1-.53-.52c-.23-.28-.36-.5-.3-.5s.31.24.54.51Zm3.28.3c0,.07-.22,0-.48-.17s-.47-.34-.47-.41.22,0,.48.17.48.35.47.41Zm-2.11.74c.23.28.36.5.3.5s-.31-.24-.54-.52-.36-.5-.3-.5.31.24.54.52Zm3.77.32c0,.07-.22,0-.48-.17s-.47-.35-.47-.41.22,0,.48.17.48.34.47.41Zm-33.2-1.8a.51.51,0,0,1-.47,0c-.19-.09-.14-.14.15-.14s.4.06.32.13Zm-6-.08a1.45,1.45,0,0,1-.57.36c-.55.24-.55.24-.08-.1s.66-.44.65-.26Zm36.54,2.51c.29.4.28.41-.09.11a1.61,1.61,0,0,1-.41-.45c0-.22.2-.09.5.34Zm5.45,1a6.11,6.11,0,0,1-2-1.14c0-.07.48.13,1.08.46s1,.63,1,.68ZM145.6,76.07c0,.07-.26.24-.56.37-.55.23-.55.23-.08-.11s.65-.43.64-.26Zm39.46,3.15c.28.39.26.4-.11.08s-.51-.54-.29-.53a1.57,1.57,0,0,1,.4.45Zm7.25,1a7.3,7.3,0,0,0,2.28,2.43c.2,0,.28.16.18.37-.19.46-.05.46.43,0,.23-.21.44-.25.52-.1s0,.25-.13.24c-.47,0-.3.62.33,1.26l.61.62-.15-.6c-.1-.41-.06-.53.14-.39a1,1,0,0,1,.16.89c-.08.38-.05.64.06.58s.24,0,.32.15.21.21.33.15.2.05.19.24-.1.29-.21.22c-.35-.25-.23.31.14.65.19.17.34.22.32.1-.11-.7.1-.56.68.44,1,1.84,1,1.84.71,1.61s-.27-.09-.19.13a.38.38,0,0,0,.39.3.2.2,0,0,1,.26.19c0,.59-.67.12-1.26-.91-.36-.63-.75-1.07-.87-1s-.22,0-.22-.2a3.57,3.57,0,0,0-.54-1.23c-.3-.51-.48-1-.4-1.06s-.28-.25-.7-.21c-.09,0-.09-.16,0-.37s.07-.35-.11-.25-.34-.08-.41-.33a.69.69,0,0,0-.7-.49c-.49,0-.55,0-.38.43a1.78,1.78,0,0,1,.19.66c0,.1-.18-.13-.36-.51-.34-.7-.78-.92-.81-.4,0,.22-.06.23-.18,0a1.34,1.34,0,0,0-.53-.43c-.2-.08.16-.14.8-.12s1.16,0,1.17-.14a7.73,7.73,0,0,0-1.09-1.38,5.48,5.48,0,0,1-1.12-1.62c0-.22,0-.35.09-.28a.33.33,0,0,1,.06.3Zm-50.22-2.12a1.31,1.31,0,0,1-.45.4c-.39.28-.4.27-.08-.11s.54-.51.53-.29Zm45.77,3.16c0,.07-.22,0-.48-.17s-.47-.35-.47-.41.22,0,.48.17.48.34.47.41Zm-46.78-2.48a3,3,0,0,1-.57.51l-.57.44.48-.51c.46-.5.67-.63.66-.44Zm48.38,3c-.09-.3,0-.22.39.24a2,2,0,0,0,.79.71c.14,0,.25.18.24.37s-.11.28-.51-.1a5,5,0,0,0-1.27-.83,2.73,2.73,0,0,1-.91-.59c-.08-.14.21,0,.64.21.73.43.76.43.63,0Zm-49.64-2.08a10.27,10.27,0,0,1-1.09,1l-1.08.92,1-1c1-.93,1.17-1.1,1.16-.92Zm45.12,3c1.22,1,2.23,2.08,1.93,2.07a34.44,34.44,0,0,1-3.4-3c-.06,0,0-.08.07-.08a8.59,8.59,0,0,1,1.4,1Zm6.91.49a.49.49,0,0,1-.46,0c-.2-.09-.14-.14.15-.14s.39.06.31.13Zm1.37,2.18c-.08.17-.13,0-.11-.31s.07-.47.13-.3a1,1,0,0,1,0,.61Zm1.51.62c0,.13-.12.07-.24-.13a1.6,1.6,0,0,1-.22-.62c0-.13.12-.07.24.13a1.6,1.6,0,0,1,.22.62Zm-1.34.86c-.08.16-.12,0-.11-.31s.08-.48.14-.3a.92.92,0,0,1,0,.61Zm1.77.38c0,.13-.12.07-.24-.13a1.6,1.6,0,0,1-.22-.62c0-.13.12-.07.24.13a1.6,1.6,0,0,1,.22.62Zm.9.83c.26.59.42,1.07.35,1.06a7.59,7.59,0,0,1-1-2.14c0-.28.14-.07.65,1.08Zm.77,0c0,.13-.12.07-.24-.13a1.6,1.6,0,0,1-.22-.62c0-.13.12-.07.24.13a1.6,1.6,0,0,1,.22.62Zm-3.24-.22c-.09.19-.14.14-.14-.15s.06-.4.14-.32a.54.54,0,0,1,0,.47Zm2,.65c0,.13-.12.07-.24-.13a1.6,1.6,0,0,1-.22-.62c0-.13.12-.07.24.13a1.6,1.6,0,0,1,.22.62Zm-1.81.58c-.09.2-.14.14-.14-.15s.06-.4.13-.32a.51.51,0,0,1,0,.47Zm2.24.67c0,.12-.12.06-.24-.14a1.6,1.6,0,0,1-.22-.62c0-.13.12-.07.24.13a1.64,1.64,0,0,1,.22.63Zm-64.31-3.07c-.24.23-.27.2-.14-.14s.25-.37.32-.29,0,.27-.18.43ZM194,90.26c-.07.17-.12,0-.11-.31s.08-.47.14-.3a.91.91,0,0,1,0,.61ZM198.82,92a5.53,5.53,0,0,0,.76,1.62c.43.53.43.56,0,.24s-.44-.32-.33,0A26.78,26.78,0,0,1,200.2,98a6.77,6.77,0,0,1-.56-1.8c-.71-2.92-1-3.73-1.33-3.32-.14.19-.25.24-.25.1a.87.87,0,0,1,.27-.48c.18-.16.16-.57-.06-1.31a7.63,7.63,0,0,1-.3-1.35c0-.33.49.88.85,2.21Zm-1-.9c.6,1.28.59,1.25.27,1.24a.28.28,0,0,1-.23-.32,3.83,3.83,0,0,0-.56-1.25c-.33-.52-.45-.91-.29-.87a3.09,3.09,0,0,1,.81,1.2ZM130.88,88c-.16.26-.34.47-.41.47s0-.22.17-.48.34-.47.41-.47,0,.22-.17.48Zm69,3.58c0,.13-.12.07-.24-.13a1.6,1.6,0,0,1-.22-.62c0-.13.12-.07.24.13a1.6,1.6,0,0,1,.22.62Zm-2.75.85c0,.14-.15,0-.33-.38a3,3,0,0,1-.3-.87c0-.14.15,0,.33.38a3,3,0,0,1,.3.87Zm-66.31-2.19c0,.12-.13.14-.27,0s-.22,0-.14.41.06.43,0,.25-.17-.28-.38,0-.19.07.27-1c.09-.2-.08-.1-.39.23s-.54.46-.54.29a1.17,1.17,0,0,1,.38-.63c.2-.18.29-.43.2-.55s.09,0,.37.27a1.73,1.73,0,0,1,.52.71Zm.53-.12c-.31.48-.38.32-.12-.27.09-.22.21-.34.28-.27s0,.3-.16.54ZM194.57,93c-.09.2-.14.14-.14-.15s.06-.39.14-.31a.52.52,0,0,1,0,.46Zm5.91.6c0,.13-.12.07-.24-.14a1.6,1.6,0,0,1-.22-.62c0-.13.12-.07.24.14a1.6,1.6,0,0,1,.22.62Zm-2.62.63c.08.23,0,.31-.11.22a.51.51,0,0,1-.23-.38c0-.35.2-.26.34.16ZM130.4,92.61c0,.24-.09.19-.22-.13a3.21,3.21,0,0,1-.18-.87c0-.23.09-.19.22.13a2.6,2.6,0,0,1,.18.87Zm67.9,2.6c.1.33.07.34-.19.11s-.41-.22-.52-.13-.13.06,0-.11c.27-.42.56-.36.73.13Zm-68.18-1.76c0,.13-.1.07-.22-.13a1.61,1.61,0,0,1-.2-.74c0-.39.42.4.42.87Zm67.7,3.1c-.07.16-.12,0-.11-.31s.08-.48.14-.3a.92.92,0,0,1,0,.61Zm1,0c.25.6.25.61-.09.13a1.72,1.72,0,0,1-.35-.73c0-.29.13-.14.44.6Zm-69-2.24c0,.32-.05.32-.25,0a1.63,1.63,0,0,1-.21-.74c0-.32,0-.32.25,0a1.77,1.77,0,0,1,.21.74ZM129,97.18c-.32,1.26-.61,2.63-.65,3s-.09.57-.15.26c-.14-.69,1-6,1.19-5.79a8.17,8.17,0,0,1-.39,2.5Zm71,1.48c0,.13-.12.07-.24-.13a1.6,1.6,0,0,1-.22-.62c0-.13.12-.07.24.13a1.6,1.6,0,0,1,.22.62Zm1.37,3.18c.33,1,.65,2,.71,2.29.13.5.13.5-.15,0a3,3,0,0,0-.44-.63A7,7,0,0,1,201,102c-.19-.75-.41-1.5-.48-1.67s0-.31.09-.31a5.66,5.66,0,0,1,.79,1.81Zm-3.85-.34c.08.23,0,.31-.11.22a.51.51,0,0,1-.23-.38c0-.34.2-.26.34.16Zm2.09,2.12c-.09.28-.26.45-.38.37s-.21-.06-.22.07a6.86,6.86,0,0,0,2,2c.26.16.35.29.21.29a1.93,1.93,0,0,1-.83-.49l-.57-.49-.09,1.41a7.77,7.77,0,0,1-.44,2.17,1.6,1.6,0,0,0-.11,1.42c.23.6.22.62-.07.22s-.35-.37-.43-.16-.16.08-.23-.21a3,3,0,0,1,.39-1.52,4.77,4.77,0,0,0,0-4.6c-.34-.5-.46-.78-.26-.61s.41.22.58-.46.25-.7.41-.38a1.5,1.5,0,0,1,.05.92Zm.44.54c-.21.67-.34.6-.3-.16,0-.34.12-.54.24-.46s.14.36.06.62Zm-1.26,3.06c-.08.5-.1.15-.06-.8s.1-1.35.14-.91a9.14,9.14,0,0,1-.08,1.71Zm-70.61.49c-.08.17-.13,0-.11-.31s.08-.47.14-.3a.92.92,0,0,1,0,.61Zm.16,1.72c-.07.16-.12,0-.1-.31s.07-.48.13-.3a.92.92,0,0,1,0,.61Zm62.08,16.66a39.3,39.3,0,0,0-2.64,3.44c-.28.5-.63.86-.74.78-.29-.2-.31.12,0,.6.18.32.34.27,1.05-.32l.84-.69-.76.76a2.42,2.42,0,0,1-1.11.74,1.69,1.69,0,0,0-.88.38c-.36.27-.44.29-.25.05a1.44,1.44,0,0,0,.3-.74c0-.49,1.12-2.12,1.42-2.11.13,0,.2-.12.18-.29s.11-.27.28-.22.27-.06.19-.31a.41.41,0,0,1,.22-.52,3.56,3.56,0,0,0,1-1c1.06-1.44,2.82-3.35,2.94-3.21a16.5,16.5,0,0,1-2,2.65Zm1.75-.62a7,7,0,0,1-.68.88c-.41.45-.41.45-.05-.12.69-1.09.76-1.18.88-1.18s0,.18-.15.42Zm-1.76,2.67c-.4.66-.81,1.18-.93,1.17s-.18.08-.11.21,0,.2-.2.2.12-.6.73-1.4a14.83,14.83,0,0,1,1.14-1.38,5.42,5.42,0,0,1-.63,1.2Zm-1.86,3.21c-.09.19-.27.35-.39.35s-.18.09-.1.23,0,.22-.14.18-.51.3-.8.75-1.05,1.42-1.67,2.15c-1.13,1.34-1.41,1.81-.9,1.52s-.15.63-.91,1.16c-.55.38-.81.73-.73,1s.22.31.73-.13a3,3,0,0,0,.74-.89A1.56,1.56,0,0,1,185,137c.49-.27.49-.26,0,.56-.25.45-.55.83-.67.82s-.13.13-.05.28.07.22-.15.08-.26-.09-.16.21,0,.35-.08.27c-.31-.21-3.31,4.36-5.66,8.64a32.85,32.85,0,0,1-2,3.44c0-.13-.42.49-.93,1.4a5.57,5.57,0,0,0-.81,1.77c.07.07.4-.41.75-1.1s.68-1.18.75-1.11a7.14,7.14,0,0,0,1.38-1.87,18.39,18.39,0,0,1,1.35-2,21.61,21.61,0,0,1-1.29,2.5,8.78,8.78,0,0,1-1.57,2.35c-.11-.07-.47.42-.81,1.09s-.68,1.15-.76,1.06c-.25-.27-1.11,1.47-2.4,4.85a11.05,11.05,0,0,1-1.37,3,11.9,11.9,0,0,1,1-3.07,23.88,23.88,0,0,0,1.26-3.48c.06-.78,1.75-3.88,2-3.64s.13-.07.06-.42-.08-.54.13-.24.25.3.17-.17,0-.49.14-.39.18,0,.11-.3a1.11,1.11,0,0,1,.15-.82c.21-.27.23-.21.11.25s.55-.65,1.43-2.19a15.9,15.9,0,0,1,1.81-2.79c.1,0,.21-.15.22-.32a14.89,14.89,0,0,1,1.5-2.5c1.54-2.25,1.75-2.66,1.11-2.19-.2.16-.38.22-.37.14s0-.22,0-.33.24-.17.54-.15.57-.11.63-.27-.09-.26-.4-.21-.45,0-.36-.15a.26.26,0,0,1,.37-.1.26.26,0,0,0,.37-.1.26.26,0,0,1,.38-.09c.14.08.23,0,.24-.1,0-.37-.4-.58-.59-.3a.26.26,0,0,1-.38.09c-.12-.08-.61.39-1.1,1s-.94,1.13-1,1.05-.12.06-.11.3a.37.37,0,0,1-.35.43c-.21,0-.39.22-.42.54a1.42,1.42,0,0,1-.37.84c-.25.22-.25.16,0-.32s.26-.54,0-.33a2.29,2.29,0,0,0-.44,1.08l-.14.81.65-.7.64-.7-.45.88c-.23.48-.55.81-.68.72s-.18,0-.09.27,0,.36,0,.3-.39,0-.67.2-.41.33-.31.33-.11.4-.48.89-.79.88-.94.88a.47.47,0,0,0-.42.32c-.09.21,0,.27.16.16s-.09.54-.57,1.39c-.72,1.31-.92,1.52-1.2,1.26s-.3-.23-.06.27.22.55,0,.39-.26-.07-.16.23,0,.36-.13.24-.23,0-.13.23,0,.36-.13.24-.21,0-.13.29a1.14,1.14,0,0,1-.15.82c-.21.27-.23.21-.1-.25s.14-.55-.12-.17a1,1,0,0,0-.18.8c.08.22,0,.29-.13.18s-.21,0-.14.29c.17.62-.27,1.26-.46.69-.07-.23,0-.33.1-.24s.25.06.25-.09c0-.64-.45-.41-.88.43-.26.5-.58.85-.71.77s-.17,0-.08.12a2.88,2.88,0,0,1-.55,1.51c-.62,1.08-2.52,5.26-3.32,7.27-.16.41-.29.6-.3.45a5.65,5.65,0,0,1,.41-1.3c.52-1.27.54-1.75.05-1s-.52.48-.08-.37c.23-.46.37-.54.53-.3s.18.15.12-.22,0-.49.15-.39.2,0,.12-.24,0-.4.12-.39.19-.08.12-.22c-.23-.4,3.94-8.17,4.29-8s.69-.28.34-.79-.26-.38.12-.06.58.07.16-.39,0-.88.35-.63c.17.11.21,0,.12-.25s0-.35.13-.24.23,0,.14-.26-.1-.4.26-.08.38.32.15-.13a1.06,1.06,0,0,1,.14-1.15c.21-.36.44-.67.51-.66s0,.2-.16.46-.19.53-.08.6.23,0,.25-.16a4.87,4.87,0,0,1,1.15-2.68,3.23,3.23,0,0,0,.71-1.22c-.06-.07-.36.2-.67.6s-.68.68-.83.64a.37.37,0,0,0-.4.26c-.1.24,0,.29.21.16s.26-.09.13,0a.69.69,0,0,1-.47.2.47.47,0,0,0-.39.32c-.09.22,0,.27.17.16s-.42.81-1.33,2a46.78,46.78,0,0,0-5,7.8,3.94,3.94,0,0,1-.82,1.43c-.11,0-.15.17-.08.4s.05.35-.18.2-.27-.11-.17.18c.17.52-.11,1.17-.42,1-.15-.11-.19,0-.1.42s.06.48-.08.26-.58.54-1.5,2.72a83.33,83.33,0,0,0-3.28,9.18c0,.24-.08.29-.15.12-.16-.45,1.81-6.49,3-9.27.59-1.35,2.64-5.32,4.55-8.82,3.07-5.6,3.55-6.34,4-6.24s.49,0,.45-.29.08-.39.23-.35.29-.12.28-.36a11.26,11.26,0,0,1,2.32-3.36c.07,0,0,.17-.18.35s-.26.42-.19.5.37-.18.68-.58.67-.69.82-.65a.38.38,0,0,0,.4-.26c.09-.22,0-.27-.17-.15s.25-.46.9-1.21c3.79-4.32,5.27-6.4,2.85-4L179.94,140l1.12-1.25a5.36,5.36,0,0,1,1.24-1.17c.24.18,1.68-.91,1.7-1.27,0-.2-.08-.31-.2-.25a.28.28,0,0,0-.06.38c.09.17,0,.2-.16.07s-.26-.11-.13.14.1.27,0,.16-.36-.07-.59.08c-.44.3.33-.52,2.49-2.67.75-.74,1.3-1.46,1.23-1.59s.34-.55.92-.93c1.21-.79,1.27-.81,1.06-.33Zm-2.83,1.06c0,.06-.19.23-.45.41s-.4.26-.08-.11.54-.51.53-.3Zm0,.76c-.33.32-.63.53-.69.47s-.68.5-1.4,1.27a7.37,7.37,0,0,1-1.51,1.39.14.14,0,0,0-.16.19,15.11,15.11,0,0,1-2.54,3.1c-.08,0,.27-.48.78-1,1.09-1.22,1.22-1.62.26-.86-.4.32.43-.52,1.84-1.87a23.26,23.26,0,0,1,2.72-2.39c.08,0,.35-.14.6-.4a1.74,1.74,0,0,1,.57-.45c.07,0-.14.26-.47.59Zm.14,3.12c-.25.22-.28.19-.14-.14s.24-.37.32-.29,0,.27-.18.43Zm-2.07,1.65a1.34,1.34,0,0,1-.44.4c-.4.28-.41.27-.08-.11s.53-.51.52-.29Zm-4.19.76a6.69,6.69,0,0,1-.82.75l-.83.68.76-.77c.7-.7.9-.85.89-.66Zm-.3,1.23a1.34,1.34,0,0,1-.44.4c-.4.28-.41.27-.08-.11s.53-.51.52-.29Zm0,1.12a5.25,5.25,0,0,1-1,.93A3.43,3.43,0,0,1,179,141a5.59,5.59,0,0,1,.94-.94c.07,0-.25.43-.7,1Zm-1.19-.69a4.42,4.42,0,0,1-.7.62l-.7.56.62-.63c.59-.61.79-.75.78-.55Zm.47.51a1.57,1.57,0,0,1-.45.4c-.39.28-.4.27-.08-.11s.54-.51.53-.29Zm2.13,1.46c-.88,1-1.31,1.25-.69.39.21-.3.51-.76.69-1.07s.42-.48.56-.39-.11.56-.56,1.07Zm-3.89-.57a2.64,2.64,0,0,1-.57.51l-.57.44.48-.51c.46-.5.67-.63.66-.44Zm1,.05a1.4,1.4,0,0,1-.45.41c-.39.27-.4.26-.08-.12s.54-.51.53-.29Zm.46.51a1.34,1.34,0,0,1-.44.4c-.4.28-.4.27-.08-.11s.53-.51.52-.29Zm-2.47.62a3.37,3.37,0,0,1-.57.51l-.57.43.48-.51c.46-.49.67-.63.66-.43Zm1.18.93a2.68,2.68,0,0,1-.67.7c-.07,0,.12-.31.43-.71s.6-.71.67-.7-.12.31-.43.71Zm-2.21.24c0,.06-.19.23-.44.41s-.41.26-.09-.12.54-.51.53-.29Zm-1.29,1.55c-.31.4-.6.71-.67.7s.11-.31.42-.71.6-.71.67-.7-.11.31-.42.71Zm6.68.8a2.16,2.16,0,0,1-.55.71c-.07,0,.06-.32.3-.72a2.16,2.16,0,0,1,.55-.71c.07,0-.06.32-.3.72Zm-6,.21c-.16.26-.34.47-.41.47s0-.22.17-.48.34-.47.41-.47,0,.22-.17.48Zm-.79,1.18c-.16.27-.34.48-.41.47s0-.22.17-.48.35-.47.41-.47,0,.22-.17.48Zm3.28,1.29c-.23.38-.41.6-.41.51,0-.29.62-1.4.73-1.29s-.09.4-.32.78Zm-5.75,0a9.41,9.41,0,0,1-.69.89c-.41.45-.41.44-.05-.13.7-1.09.77-1.18.88-1.18s0,.19-.14.42Zm-1.34,2c-.16.26-.35.47-.41.47s0-.22.17-.49.34-.47.41-.47,0,.22-.17.49Zm-1.32,2.13a3.21,3.21,0,0,1-.66,1,2.45,2.45,0,0,1,.42-1,3.46,3.46,0,0,1,.65-.95c.07,0-.12.44-.41,1ZM166.57,156c-.29.5-.53.84-.54.75a5,5,0,0,1,1-1.76,2.61,2.61,0,0,1-.44,1Zm5.17.45c-.16.36-.2.37-.37,0a1.08,1.08,0,0,1,0-.79c.15-.36.2-.36.36,0a1.05,1.05,0,0,1,0,.78Zm2.12.62c-.31.48-.38.32-.12-.28.09-.21.21-.33.28-.27s0,.31-.16.55Zm-2.74.23c0-.19.07-.28.14-.21a.68.68,0,0,1-.07.55c-.14.33-.21.35-.37.08a1.58,1.58,0,0,1-.18-.58c0-.13.12-.07.24.13s.23.31.24,0Zm-1,1.54c-.31.49-.39.33-.13-.27.09-.22.22-.33.28-.27s0,.31-.15.54Zm.13,1.06c-.17.43-.35.72-.4.67a1.88,1.88,0,0,1,.21-.87c.17-.43.35-.73.4-.67a1.88,1.88,0,0,1-.21.87Zm-.94.62c-.31.48-.39.32-.13-.28.09-.21.22-.33.28-.27s0,.31-.15.55Zm3,.53c-.08.2-.14.14-.14-.15s.07-.4.14-.32a.51.51,0,0,1,0,.47Zm-3.26,1.8c-.08.2-.13.14-.14-.15s.07-.39.14-.31a.46.46,0,0,1,0,.46Zm2.42.6c-.09.2-.14.14-.14-.15s.06-.39.13-.31a.48.48,0,0,1,0,.46Zm-1.28,1.66c-.28,1.09-.42,1.31-.66,1.09s-.39-.8,0-.54c.18.12.21,0,.11-.39s-.07-.51.14-.36.25.06.14-.36-.07-.51.14-.36.25.06.14-.38-.07-.52.11-.33.16.65-.1,1.63Zm-2.83-.29c-.3.49-.38.33-.12-.27.09-.22.22-.33.28-.27s0,.31-.16.54Zm-1.61.43c-.23.38-.41.6-.41.51,0-.3.63-1.4.73-1.29s-.09.4-.32.78Zm5.15-.11c-.09.19-.14.14-.14-.16s.06-.39.14-.31a.54.54,0,0,1,0,.47Zm-2.69.11c-.09.2-.14.14-.14-.15s.06-.39.13-.31a.49.49,0,0,1,0,.46Zm-.29,1c-.09.19-.14.14-.14-.16s.06-.39.14-.31a.54.54,0,0,1,0,.47Zm-5.62,0c-.08.2-.14.14-.14-.15s.07-.4.14-.31a.49.49,0,0,1,0,.46Zm4.24.54c-.31.48-.38.32-.12-.28.09-.21.21-.33.28-.26s0,.3-.16.54Zm3.12.44c0,.31-.09.29-.35-.09-.44-.63-.43-1,0-.62a1,1,0,0,1,.34.71Zm.67-.36c-.08.19-.14.14-.14-.15s.07-.4.14-.32a.51.51,0,0,1,0,.47Zm-2.7.36c-.09.2-.14.14-.14-.15s.06-.39.14-.31a.52.52,0,0,1,0,.46Zm-5.62,0c-.08.2-.14.14-.14-.15s.07-.39.14-.31a.49.49,0,0,1,0,.46Zm7.33,1c0,.2-.16.09-.33-.26-.42-.83-.41-1.21,0-.59a1.89,1.89,0,0,1,.31.85Zm-4.8-.32c-.31.48-.38.32-.13-.28.09-.21.22-.33.28-.27s0,.31-.15.55Zm1.25-.09c.06.27,0,.43-.11.35a.59.59,0,0,1-.2-.49c0-.5.19-.43.31.14Zm1.55.36c-.09.2-.14.14-.14-.15s.06-.39.14-.31a.52.52,0,0,1,0,.46Zm1.82,1.65c.08.61.06.59-.19-.15-.16-.47-.35-1.15-.42-1.49s-.05-.42.19.16a8.09,8.09,0,0,1,.42,1.48Zm.61-1.29c-.09.2-.14.14-.14-.15s.06-.39.13-.31a.48.48,0,0,1,0,.46Zm-8.06-.13c-.08.2-.14.14-.14-.15s.07-.39.14-.31a.49.49,0,0,1,0,.46Zm3.39,1.66c-.53,1.34-.53,1.42-.13,1.77s.36.33,0,.2a1,1,0,0,0-.9.33c-.38.37-.49.4-.48.11s.1-.36.19-.36a7,7,0,0,0,.82-1.92c.36-1.06.74-1.85.84-1.74a3.27,3.27,0,0,1-.37,1.61Zm2-.92c-.08.19-.14.14-.14-.16s.06-.39.14-.31a.54.54,0,0,1,0,.47Zm-5.64.47c-.09.19-.14.14-.14-.16s.06-.39.14-.31a.54.54,0,0,1,0,.47Zm1.71.08c-.09.19-.14.14-.14-.16s.06-.39.13-.31a.51.51,0,0,1,0,.47Zm.59.12c-.3.48-.38.33-.12-.27.09-.22.21-.33.28-.27s0,.31-.16.54Zm3,.55c-.08.16-.12,0-.11-.31s.08-.48.14-.3a.92.92,0,0,1,0,.61Zm2.1,0c.05.27,0,.49-.12.49s-.21-.23-.2-.5.07-.49.12-.48.14.22.2.49Zm-7.76.8c-.08.24-.12.11-.1-.31s.08-.59.14-.42a1.32,1.32,0,0,1,0,.73Zm5.36.37c-.08.17-.12,0-.11-.31s.08-.47.14-.3a1,1,0,0,1,0,.61Zm1.47-.18c-.08.19-.13.14-.14-.16s.07-.39.14-.31a.48.48,0,0,1,0,.47Zm.66.12c.08.23,0,.31-.11.22a.49.49,0,0,1-.23-.38c0-.34.2-.26.34.16Zm-1.43.82c-.09.19-.14.14-.14-.16s.06-.39.13-.31a.51.51,0,0,1,0,.47Zm.48,0c-.08.2-.13.14-.14-.15s.07-.39.14-.31a.46.46,0,0,1,0,.46Zm.56.49c-.14.31-.26.44-.27.28,0-.39.31-1.09.43-1a1.18,1.18,0,0,1-.16.68Zm-7.44.3c-.07.23-.11,0-.09-.43s.08-.66.13-.42a2,2,0,0,1,0,.85Zm5.39-.11c-.08.16-.13,0-.11-.31s.08-.48.14-.3a1,1,0,0,1,0,.61Zm-4.15-.21c-.08.2-.13.14-.13-.15s.06-.4.13-.31a.46.46,0,0,1,0,.46Zm.58.37c-.24.3-.5.54-.59.54s-.15.15-.12.32,0,.23,0,.13-.25,0-.43.1-.3.36-.25.44a2.05,2.05,0,0,1-.33,1l-.41.8.17-.8.17-.79-.67.65c-.59.58-.62.59-.24.07a2.82,2.82,0,0,0,.46-1.2c0-.56.06-.57.23-.12s.2.45.23.06.15-.36.28-.27.32,0,.41-.33.25-.44.38-.35.29-.05.37-.31.29-.47.47-.46.24.13-.1.56Zm4.29.1c-.09.2-.14.14-.14-.15s.06-.39.14-.31a.52.52,0,0,1,0,.46Zm-3.74.51a2.16,2.16,0,0,1-.55.71c-.06,0,.07-.32.31-.72a2.2,2.2,0,0,1,.54-.71c.07,0-.06.32-.3.72Zm1.93,1.62c-.08.43-.1.08-.06-.8s.1-1.23.13-.79a7.7,7.7,0,0,1-.07,1.59Zm-1.15-.48c0,.48,0,.48-.22,0a2.92,2.92,0,0,1-.18-1c0-.49,0-.49.22,0a2.88,2.88,0,0,1,.18,1Zm1.91,1.4c-.17.27-.21-.06-.16-1.08l.08-1.46.16,1.08a2.75,2.75,0,0,1-.08,1.46Zm1.56-1.3c-.24.22-.27.19-.14-.14s.25-.37.32-.29,0,.26-.18.43Zm-5.59.16c.06.27,0,.55-.12.62s-.21-.14-.2-.49c0-.75.18-.81.32-.13Zm5.29.36c0,.07-.11.16-.26.24s-.24,0-.23-.12a.23.23,0,0,1,.25-.24c.15,0,.24,0,.24.12Zm-3.44.37c0,.19-.13.29-.25.2a.25.25,0,0,1-.09-.37c.22-.34.36-.27.34.17Zm-1.88,1a.71.71,0,0,1-.57.21c-.33,0-.31-.07.09-.23.67-.26.67-.26.48,0Zm4,1c0,.34-.08.61-.13.61s-.13-.28-.18-.62,0-.61.13-.61.19.28.18.62Zm-.67.48c-.08.2-.21.3-.27.24s0-.25.06-.39c.26-.38.4-.28.21.15Zm-4.38.39a.52.52,0,0,1-.45.22c-.18,0-.14-.1.08-.23.48-.28.57-.28.37,0Zm-6.5,5.68a6.17,6.17,0,0,1-1.36.52c-.14,0,.26-.25.88-.55a6.56,6.56,0,0,1,1.37-.52c.13,0-.26.25-.89.55Zm-4.66.51a2.45,2.45,0,0,1-.87.3c-.13,0,0-.15.38-.32a2.51,2.51,0,0,1,.87-.3c.14,0,0,.15-.38.32Zm-1.31.14c0,.41-2.6,1.51-2.58,1.1a.37.37,0,0,1,.42-.3,3.2,3.2,0,0,0,1.27-.54l.89-.57a1.3,1.3,0,0,1,0,.31Zm3,.07c-.33.19-.33.22,0,.24s.32.05,0,.24a1.13,1.13,0,0,1-.83.06c-.29-.11-.4-.07-.3.11s0,.21-.25.1-.35-.08-.27.07-.58.49-1.47.79-1.66.44-1.72.32,0-.21.26-.2a4.31,4.31,0,0,0,1.35-.41c.53-.24,1-.36,1.1-.28s.15,0,.15-.13.44-.47.94-.71c1-.44,1.73-.59,1.06-.2Zm-2.19,2.58a.55.55,0,0,1-.46.22c-.17,0-.14-.1.09-.23.48-.28.56-.28.37,0Zm23.26,1.32c-.5.3-1.06.28-.86,0a.9.9,0,0,1,.7-.21c.44,0,.47.06.16.24Zm-9.64-.2a2.14,2.14,0,0,1-.67.48c-.32.16-.45.16-.35,0s0-.3-.27-.37-.13-.07.23,0a1,1,0,0,0,.82-.12.41.41,0,0,1,.28-.22c.07,0,.05.1,0,.24Zm-15-.6c0,.06-.17.15-.39.23s-.32,0-.22-.11.61-.31.61-.12Zm28,2.7c.27.22.21.24-.3.11s-.72-.08-.81.06a.57.57,0,0,1-.44.22c-.15,0-.05-.17.23-.36.58-.4.85-.4,1.32,0Zm-21.46-.78a1.42,1.42,0,0,1-.62.21c-.13,0-.07-.12.13-.24a1.45,1.45,0,0,1,.63-.21c.13,0,.06.11-.14.24Zm-6.37.43a1.6,1.6,0,0,1-.62.22c-.13,0-.07-.12.13-.24a1.66,1.66,0,0,1,.62-.22c.13,0,.07.12-.13.24Zm-1.86.65a.52.52,0,0,1-.45.22c-.18,0-.14-.1.08-.23.48-.28.57-.28.37,0Zm39.91,3.94c.29.86-.17.7-1.33-.47l-1.29-1.29,1.25.7a4.11,4.11,0,0,1,1.37,1.06Zm-27.15-2.52a3.18,3.18,0,0,1-.58.51l-.57.44.48-.51c.46-.5.68-.63.67-.44Zm-10.86.08a2.57,2.57,0,0,1-.91.5c-.54.2-.67.34-.45.5s.22.22,0,.21c-.7,0-.49-.52.38-.94,1.1-.53,1.14-.54,1-.27Zm30.56,1.72a.23.23,0,0,1-.26.23.22.22,0,0,1-.23-.25.23.23,0,0,1,.25-.23.23.23,0,0,1,.24.25Zm-33.07-.3c.1.18.06.23-.09.13a.31.31,0,0,0-.42.07.49.49,0,0,1-.45.21c-.16,0-.07-.18.18-.36.59-.4.59-.4.78-.05Zm27,2.16a6.58,6.58,0,0,1-1.19.83c-.71.38-.77.39-.55,0a4.22,4.22,0,0,1,1.93-1.28c.13,0,0,.18-.19.42ZM143,195.12c-.38.31-1.23.58-1.22.38s.21-.29.43-.33c.59-.13.91-.15.79,0Zm-1.47.58a.43.43,0,0,1-.23.34c-.11.06-.2,0-.19-.24s.11-.35.22-.34a.2.2,0,0,1,.2.24Zm-.81.12a.54.54,0,0,1-.47,0c-.19-.09-.14-.14.16-.14s.39.06.31.14Zm-1.1.21a1.23,1.23,0,0,1-.73,0c-.24-.08-.11-.13.31-.11s.6.08.42.14Zm-1.36,1.58c0,.06-.26.23-.56.36-.55.24-.55.24-.08-.1s.65-.44.64-.26Zm59,3c0,.06-.1.16-.25.24s-.25,0-.24-.12a.23.23,0,0,1,.25-.24c.15,0,.25.05.24.12ZM137,198.28c0,.07-.27.24-.56.37-.55.23-.56.23-.09-.11s.66-.43.65-.26Zm-1.36.79c-.09.12,0,.28.15.35s0,.13-.42.13c-.69,0-.7,0-.22-.36s.69-.43.49-.12ZM200.89,204c-.08.07-.21-.07-.29-.32s-.07-.38.16-.13.22.38.13.45Zm-3.18,2.06c-.31.48-.38.32-.12-.27.09-.22.21-.34.28-.27s0,.3-.16.54Zm-41.24-1.58a1.42,1.42,0,0,1-.62.21c-.13,0-.07-.11.13-.23a1.45,1.45,0,0,1,.62-.22c.13,0,.07.12-.13.24Zm-21.95-.66a4.1,4.1,0,0,1-.83.59l-.81.48.76-.59c.78-.62.88-.67.88-.48Zm21.67,1.24c0,.07-.1.17-.25.25s-.25,0-.24-.12a.26.26,0,0,1,.26-.25c.14,0,.24.06.23.12Zm-23.95.49a.63.63,0,0,1-.59,0c-.13-.08,0-.23.23-.3.6-.19.84,0,.36.26Zm-.75.3s-.18.23-.39.39-.34.21-.2-.12.6-.54.59-.27Zm2.92.14c0,.06-.19.23-.44.41s-.4.26-.08-.12.53-.51.52-.29Zm21.94,1c0,.27-.48.36-.61.12s0-.24.24-.23.37.06.37.11Zm1.67.3-.52.36c-.32.22-.45.22-.58,0s-.06-.23.09-.13a.31.31,0,0,0,.42-.07.52.52,0,0,1,.42-.22c.15,0,.23,0,.17.08Zm-1.83.58a.55.55,0,0,1-.45.22c-.18,0-.15-.1.08-.24.48-.28.57-.27.37,0Zm-26-1.12a3.18,3.18,0,0,1-.58.51l-.57.44.48-.52c.46-.49.68-.63.67-.43Zm2.13.65c-.31.34-.28.37.27.23.7-.18.63-.06-.16.31-.43.2-.54.19-.5,0,.07-.39.41-.91.59-.9s0,.18-.2.39Zm33.41,2.47a.66.66,0,0,1-.7.19c-.26-.11-.33-.07-.22.13s.09.28,0,.28c-.46,0-.27-.54.31-.82.8-.37,1-.29.58.22ZM129.68,208a3.22,3.22,0,0,1-.82.59l-.82.48.76-.59c.79-.62.89-.67.88-.48Zm26.06,1.16c-.06,0-.37.26-.67.49s-.57.37-.57.29c0-.24.8-.87,1.07-.85s.22,0,.17.07Zm-27.29-1c0,.06-.19.23-.45.41s-.4.26-.08-.11.54-.51.53-.3Zm2.65.36c-.06,0-.38.21-.73.37-.57.26-.59.26-.28-.1a1.12,1.12,0,0,1,.73-.37c.22,0,.34,0,.28.1ZM157,210.45c-.28.18-.54.27-.61.2s.54-.53.88-.52c.13,0,0,.14-.27.32Zm-27.88-.83c-.31.3-.47.63-.37.75s0,.13-.13,0-.18-.33.16-.75.55-.57.67-.57,0,.23-.33.54Zm34.21,1.28a.22.22,0,0,1-.09.33c-.11.06-.2,0-.19-.25,0-.41.09-.44.28-.08Zm-9.86-.37c0,.07-.27.24-.57.37-.55.24-.55.23-.08-.11s.66-.43.65-.26Zm2.62.31a2.08,2.08,0,0,1-.71.64c-.35.21-.52.24-.41.08.27-.4.08-.4-.82,0-.42.19-.75.29-.74.22a10.94,10.94,0,0,1,2.59-1.23c.11,0,.15.13.09.27Zm-28.43,0c-.25.16-.58.25-.7.17s0-.22.24-.31c.77-.27,1-.2.46.14Zm28.91,1.6c-.36.35-.72.51-.95.41s-.31-.06-.22.1-.05.39-.3.57-.4.26-.14,0a1.71,1.71,0,0,0,.34-.6,4.42,4.42,0,0,1,1.75-1s-.18.27-.48.57Zm1.9.81c0,.06-.27.23-.56.36-.55.24-.55.24-.08-.1s.65-.44.64-.26Zm-4.15,0a1.45,1.45,0,0,1-.57.36c-.55.24-.55.24-.08-.1s.66-.44.65-.26Zm2.9.62c0,.07-.27.24-.57.37-.55.24-.55.23-.08-.11s.66-.43.65-.26Zm-3.44.36a3.64,3.64,0,0,1-.82.58l-.81.49.76-.6c.78-.61.88-.67.87-.47Zm-27.06-1.05a4.22,4.22,0,0,1-.7.63l-.7.55.62-.63c.59-.61.79-.75.78-.55ZM156,214.56a1.45,1.45,0,0,1-.57.36c-.55.24-.55.24-.08-.1s.65-.44.65-.26Zm1,.31a3.52,3.52,0,0,1-.82.59l-.82.48.76-.59c.79-.62.89-.67.88-.48Zm55.21,4.65c0,.42-.54-.85-.73-1.76-.07-.33.07-.15.31.4a5.14,5.14,0,0,1,.42,1.36Zm-57.43-4.29c0,.07-.26.24-.56.37-.55.23-.55.23-.08-.11s.65-.43.64-.26Zm2.34.66c-.09.08-.06.3.07.48s.1.39-.28.57-.52.21-.52.17c-.16-.66-.08-1,.26-1.15.5-.25.71-.28.47-.07Zm-3.59,0a2.51,2.51,0,0,1-.69.46l-.69.38.61-.49c.58-.46.78-.55.77-.35Zm2.34.64c-.1.09-.07.32.06.49s.12.39-.23.56-.55.14-.63.06-.15,0-.16.12a7.12,7.12,0,0,1-2.66,1.56,5.51,5.51,0,0,1,1.38-1,4.78,4.78,0,0,1,1.6-.8c.07.07.2-.05.29-.27s.05-.36-.27-.27-.36.08,0-.21.89-.49.57-.2ZM183,218.29c-.08.19-.27.35-.39.34s-.13-.15.06-.36a1.52,1.52,0,0,1,.39-.35s0,.17-.06.37Zm-29.33-1.37a3.64,3.64,0,0,1-.82.58l-.82.49.76-.6c.79-.61.89-.67.88-.47Zm4.39.18a1.45,1.45,0,0,1-.57.36c-.55.24-.55.24-.08-.1s.65-.44.65-.26Zm-3.93.3c0,.07-.26.24-.56.37-.55.23-.55.23-.08-.11s.65-.43.64-.26Zm2.67.37c0,.07-.26.24-.56.37-.55.23-.55.23-.08-.11s.65-.44.64-.26Zm46.39,3c-.11.41-.25.7-.3.64a2,2,0,0,1,.1-.87c.11-.44.24-.72.3-.65a1.85,1.85,0,0,1-.1.88ZM158,218.56c0,.07-.27.23-.57.36-.55.24-.55.24-.08-.1s.66-.44.65-.26Zm-23.41-.8c0,.2-.5.27-.59.1s0-.2.24-.19.35.05.35.09Zm20.22,1.14a1.45,1.45,0,0,1-.57.36c-.55.24-.55.24-.08-.1s.66-.44.65-.26Zm13,1.63c-.28.19-.48.44-.46.57s-.12.14-.34.05-.34-.07-.24.11-.34.51-1.16.88-1.72.82-2.2,1.08a16.23,16.23,0,0,1-3.13,1.53,36.92,36.92,0,0,1,5.07-2.84.54.54,0,0,0,.43-.31.38.38,0,0,1,.54-.15c.27.12.36.09.26-.08s.23-.48.69-.74c.95-.55,1.27-.61.54-.1Zm1.6-.22c0,.06-.17.15-.39.23s-.32,0-.23-.11.63-.3.62-.12Zm-11.24,0a2,2,0,0,1-.75.46c-.95.44-1,.25-.07-.21s.83-.4.82-.25Zm-24.69-.2c-.42.71-.42.71-.56.26-.08-.22,0-.33.08-.25s.28,0,.36-.21.22-.36.3-.36,0,.25-.18.56ZM177.92,222a4.57,4.57,0,0,0-.92.61,9.27,9.27,0,0,1-1.43.92l-.84.43,1-.85c.53-.47.81-.87.64-.89-.45-.05.84-.36,1.43-.34.27,0,.34.07.16.12Zm-50.11-1.65a1.75,1.75,0,0,1-.68.88l-.66.52.61-.63c.71-.72.58-.84-.32-.31-.35.2-.62.31-.62.24A9.11,9.11,0,0,1,127.8,220a1.45,1.45,0,0,1,0,.36Zm40.53,1.87c0,.06-.27.23-.57.36-.54.24-.55.24-.08-.11s.66-.43.65-.25Zm-9.54.29c0,.06-.27.23-.57.36-.54.24-.55.23-.08-.11s.66-.43.65-.25Zm12.59.83c-.25.18-.34.36-.2.41s-.75.51-2,1a20.51,20.51,0,0,1-2.24.84,13.47,13.47,0,0,1,3.55-1.72c.24,0,.39,0,.33-.18s.08-.33.33-.46c.63-.33.76-.27.22.1Zm1.54,0a1.6,1.6,0,0,1-.62.22c-.13,0-.07-.12.13-.24a1.6,1.6,0,0,1,.62-.22c.13,0,.07.12-.13.24Zm-6.34-.2c0,.07-.27.24-.57.37-.55.23-.55.23-.08-.11s.66-.43.65-.26Zm4.92,1.28c-2,1.52-2.63,1.93-2.62,1.83a11,11,0,0,1,1.46-1.21c.81-.61,1.43-1.19,1.4-1.31s.08-.14.22,0,.05.35-.46.73Zm-14-1.21c0,.06-.27.23-.57.36-.55.24-.55.24-.08-.1s.66-.44.65-.26ZM174,224.44a2.56,2.56,0,0,1-1.13.55c-.2,0,.09-.26.64-.57,1.28-.71,1.45-.7.49,0Zm4.53-.27c0,.06-.11.16-.26.24s-.24,0-.24-.12a.25.25,0,0,1,.26-.24c.14,0,.24,0,.24.12Zm-41.69-1.69a3.52,3.52,0,0,1-.82.59l-.82.48.76-.59c.79-.62.89-.67.88-.48Zm23.37,1.58c-.33.33-.64.53-.7.46s.95-1,1.2-1c.05,0-.17.25-.5.58Zm5.15-.27a1.45,1.45,0,0,1-.57.36c-.55.24-.55.24-.08-.11s.65-.43.65-.25Zm-25.61-.95a1.34,1.34,0,0,1-.44.4c-.4.28-.4.26-.08-.11s.53-.51.52-.29Zm27.3,1.3a5.44,5.44,0,0,1-1.25.67,3.64,3.64,0,0,1-1.24.43,4.56,4.56,0,0,1,1.17-.66C167,224,167,224,167,224.14Zm-32-.79c0,.19-.12.3-.22.23a.22.22,0,0,1-.06-.34c.22-.33.3-.31.28.11Zm29.08,1.11c0,.07-.26.24-.56.37-.55.23-.55.23-.08-.11s.65-.44.64-.26Zm-25.6-.68c-.33.36-.08.51.34.21.14-.1,0,.06-.36.33s-.66.46-.71.41-.33.13-.66.4a10.42,10.42,0,0,1-2.18,1.61c0-.07-.18,0-.43.16s.19-.24,1-.88a7.37,7.37,0,0,1,1.48-1.08c.05.05.42-.26.85-.71.74-.77,1.37-1.16.72-.45Zm2.93-.13a3.18,3.18,0,0,1-.58.51l-.57.44.48-.52c.46-.49.67-.63.67-.43Zm14.13.66c0,.06-.27.23-.57.36-.54.24-.54.24-.08-.11s.66-.43.65-.25Zm16.82.78c0,.07-.27.24-.57.37-.55.23-.55.23-.08-.11s.66-.44.65-.26Zm-38.2-.89a.25.25,0,0,1-.36.09c-.12-.07-.3,0-.42.17a3.26,3.26,0,0,1-.71.62c-.28.19-.11-.05.36-.52s1-.79,1.08-.72a.24.24,0,0,1,0,.36Zm61.45,3c-.25.23-.44-.15-.23-.45s.23-.24.3,0a.51.51,0,0,1-.07.45Zm-33.28-1.87c0,.06-.27.23-.56.36-.55.24-.56.24-.09-.1s.66-.44.65-.26Zm1.45.31c0,.06-.26.23-.56.36-.55.24-.55.24-.08-.1s.65-.44.64-.26Zm-11.91,1.07c-.54.51-1,.81-1.08.67-.08-.3,1.43-1.62,1.85-1.62.13,0-.22.44-.77,1Zm19.18.27a3.45,3.45,0,0,1-1,.56c-.54.25-1,.39-1,.32a3.14,3.14,0,0,1,1-.56c1.05-.49,1.05-.49,1-.32Zm44.24,3c-.09.19-.14.14-.14-.16s.06-.39.14-.31a.54.54,0,0,1,0,.47Zm-48.44-2a1.34,1.34,0,0,1-.57.36c-.55.24-.55.24-.08-.1s.66-.44.65-.26Zm3.41.16a2,2,0,0,1-.75.47c-.95.43-1,.24-.07-.22s.83-.39.82-.25Zm-20.49-.47a1.54,1.54,0,0,1-.45.41c-.39.27-.4.26-.08-.12s.54-.5.53-.29Zm65.69,3.76c-.07.17-.12,0-.1-.31s.07-.47.13-.3a.91.91,0,0,1,0,.61Zm-79.11-4.14a4.79,4.79,0,0,1-.7.63l-.7.55.62-.63c.59-.61.79-.75.78-.55Zm-3.08.49a1.36,1.36,0,0,1-.73.45c-.15,0,0-.21.37-.46.81-.58.94-.58.36,0ZM180.45,230c-.33.54-.76.82-.95.61s.69-1.09,1-1.07c.12,0,.1.22-.05.46ZM168,229.28c0,.07-.27.24-.57.37-.54.24-.55.23-.08-.11s.66-.43.65-.26Zm28.14,1.93a.61.61,0,0,1-.43.25c-.16,0-.13-.16.06-.37.35-.38.65-.28.37.12ZM148,228.84c0,.06-.19.23-.44.41-.4.27-.41.26-.08-.12s.53-.51.52-.29Zm67.65,3.85c-.08.17-.12,0-.11-.31s.08-.47.14-.3a.91.91,0,0,1,0,.61Zm-80.82-4.24a6.36,6.36,0,0,1-.83.75l-.82.68.76-.77c.69-.7.9-.85.89-.66Zm81,5.72c-.08.16-.13,0-.11-.31s.07-.48.13-.3a1,1,0,0,1,0,.61ZM180.77,233c-.61,1.07-1.19,1.29-.67.26.27-.55.88-1.19,1.14-1.21a4.34,4.34,0,0,1-.47,1Zm-30-1.3c0,.06-.27.23-.56.36-.55.24-.56.24-.09-.11s.66-.43.65-.25Zm65.2,4c-.08.19-.14.14-.14-.16s.07-.39.14-.31a.51.51,0,0,1,0,.47Zm-66.83-3c-.66.45-1.38.8-1.37.67a7,7,0,0,1,1.75-1c.07,0-.1.17-.38.36Zm-13-.39a7,7,0,0,1-2.17,1c-.11,0,.31-.26.93-.55,1.25-.6,1.25-.6,1.24-.43Zm14.87.67a1.31,1.31,0,0,1-.45.4c-.39.28-.4.27-.08-.11s.54-.51.53-.29Zm-14.39-.45a8.07,8.07,0,0,1-1,.87l-.95.8.89-.89c.82-.82,1-1,1-.78ZM150,233.6a3.64,3.64,0,0,1-.82.58l-.82.49.76-.6c.79-.61.89-.67.88-.47Zm-16.35-.25a1.6,1.6,0,0,1-.75.06c-.42,0-.68-.13-.6-.25s1.36,0,1.35.19Zm17.07.53a3.64,3.64,0,0,1-.82.58l-.82.49.76-.6c.79-.61.89-.67.88-.47Zm-16.13.17a6.05,6.05,0,0,1-.83.76l-.82.68.76-.77c.69-.7.9-.86.89-.67Zm-18.18.48c-.07.23-.11,0-.09-.43s.08-.65.13-.42a2,2,0,0,1,0,.85Zm33.52.51c0,.06-.27.23-.57.36-.54.24-.55.23-.08-.11s.66-.43.65-.25Zm-36.2-.52c-.08.2-.13.14-.14-.15s.07-.4.14-.32a.48.48,0,0,1,0,.47Zm21.74,1.55c0,.06-.19.23-.44.41s-.41.26-.08-.12.53-.51.52-.29Zm-22,0c-.08.24-.13.11-.11-.31s.08-.59.14-.42a1.31,1.31,0,0,1,0,.73Zm2.2,6.36c-.29,3.87-.61,7.09-.71,7.17a42.23,42.23,0,0,1,.24-5.45c.39-5.25.79-9,.94-8.82s-.17,3.23-.47,7.1Zm96,23.13c0,.43-5.75,2.37-6,2s3.73-2.29,5-2.23c.6,0,1.09.11,1.08.19Zm1.79,1.12a3,3,0,0,1,.68,1.41c0,.49-2.34,2.23-3.42,2.57-1.75.55-7.86.73-17.13.51-5.6-.13-12.14-.13-14.52,0-3.86.2-31.29-.51-30.43-.8.16,0,2.82-.18,5.9-.29,12.53-.43,25.21-.46,36.37-.1l11.77.39,1.06-1.07a5.1,5.1,0,0,1,3.23-1.55,18.54,18.54,0,0,0,3.65-1.22,9.37,9.37,0,0,1,1.81-.77c.18,0,.65.41,1,.92ZM150.7,249.48a3,3,0,0,1-.57.51l-.57.44.48-.51c.46-.5.67-.63.66-.44Zm20.44,1.83c-.17.27-.42.47-.56.47s-.07-.23.19-.48a1.79,1.79,0,0,1,.56-.46s0,.21-.19.47Zm-8.93.23c-1,.78-2.3,1.56-1.75,1a20,20,0,0,1,2.64-1.87c.07,0-.33.38-.89.83Zm51.36,18.59a8.3,8.3,0,0,1-2.84,2.38c-.07,0,.11.27.42.52.48.39.14.42-3.19.28-2.06-.09-6.38-.16-9.63-.15s-9.31,0-13.5-.07-9.11,0-10.93.06c-6.39.28-17.32.15-22.64-.26-2.95-.23-6.33-.38-7.52-.32-1.64.07-.27.24,5.72.67,4.33.31,9.24.51,10.9.45s4.69-.05,6.76,0,5.54,0,7.76-.08a72.55,72.55,0,0,1,7.34,0l3.29.2-2.6.25c-5.21.5-29.88,1-45.74.86-8.25-.05-9.9.08-10.38.81-.19.27-.53.72-.81,1-.49.58-.49.58-1.7-.42l-1.22-1,1.1,1.07c.85.83,1,1.15.74,1.4s-.65.26-2.42-1.14a14.09,14.09,0,0,0-3.37-1.79c-2.57-.91-2.57-.91-1.94-1.54a1.27,1.27,0,0,1,1.38-.32c.68.15.75.13.31-.1s-.48-.3.3-.32.84,0,.12-.17-1.59-1.53-1-1.69l3.69-.95c2-.52,3.38-.75,3.43-.58.3,1,5.52,1.71,12.45,1.65,4.72-.05,5.2-.1,5.78-.65.34-.33.44-.38.21-.11s-.37.57-.29.65c.29.33,33.78,1.15,37.84.92,2.46-.13,7.25-.09,11.64.11,11.88.52,18.37-.1,20.21-1.95.76-.76.84-.68.28.3Zm-63.9-19.47a3.37,3.37,0,0,1-.57.51l-.57.43.48-.51c.46-.49.67-.63.66-.43ZM123,267.08c.51.2.9.46.9.58a4.72,4.72,0,0,1-1.76.65,4.38,4.38,0,0,0-1.62.57,7.71,7.71,0,0,0,2.08-.41c2.5-.71,3.18-.19.74.57a32.58,32.58,0,0,1-5.2,1.24c-.6,0-.4-.6.3-.85l.64-.23-.66,0c-.64-.05-.64-.08-.15-.92.82-1.42,2.84-1.92,4.73-1.16Zm25.69-15.25a3,3,0,0,1-.57.51l-.57.44.48-.52c.45-.49.67-.63.66-.43ZM213,275.1a3.1,3.1,0,0,1,.24,2.09c-.2.85-.32,1-.85.77a15.44,15.44,0,0,0-7.7-.72l-2,.23-1.41-1.69a7.36,7.36,0,0,0-1.76-1.7.31.31,0,0,1-.33-.31c0-.21,10.81,0,13.07.19.16,0,.5.52.77,1.14ZM200.19,275l.75.83-1.46-.07c-.81,0-3.4,0-5.76.15-4.76.25-11.06.4-16.52.4-2,0-6.73,0-10.55.1l-7,.11-1.41,1.29c-.9.82-1.45,1.14-1.52.9s.41-.81,1-1.33l1.15-.95-7.18-.17c-4-.08-9.56-.08-12.51,0s-6.93.09-8.91,0c-3.07-.16-3.5-.24-3-.55.7-.48,2.65-.56,12-.47,19.57.19,42.18-.47,50.67-1.47.4-.05,2.68,0,5.09.16,4.36.25,4.38.25,5.13,1.07ZM212,278.12l.85.38-.92.72a6.55,6.55,0,0,0-1.27,1.27c-.29.48-.34.49-.34.06s-.27-.52-1.79-.61c-3.69-.21-3.61-1,.1-.92a5.35,5.35,0,0,0,2.15-.16c-.17-.31-2.21-.38-4.24-.15-1.38.16-1.79.11-2.35-.3-.36-.26-.63-.54-.56-.6.69-.62,6.77-.39,8.37.31Zm-40-17.34c-.08.2-.2.3-.27.24s0-.25.07-.39c.26-.38.39-.28.2.15Zm20.32,2.34a7.5,7.5,0,0,1-.95.87l-1,.8.89-.88c.82-.82,1-1,1-.79Zm12.84,2.22c0,.46-.59.83-.85.54a.62.62,0,0,1,.39-1,.42.42,0,0,1,.46.49ZM155.45,263c0,.31-.68.74-.86.54s.33-.79.65-.77a.21.21,0,0,1,.21.23Zm54.77,2.87c-.18.45-.71.51-.69.06a.39.39,0,0,1,.41-.37c.22,0,.34.15.28.31Zm-56.8-1.26c0,.12-.2.28-.42.35s-.36.07-.09-.23.52-.43.51-.12ZM178.1,267a10.3,10.3,0,0,1-2.74.64c-.37,0,.16-.29,1.07-.57,1.09-.33,2-.36,1.67-.07Zm-39.16,2.1a.58.58,0,0,1-.44.24c-.15,0-.12-.15.07-.36.35-.38.65-.29.37.12Zm62.24,2.52a4.44,4.44,0,0,1-1.08.18c-.66.07-.86,0-.61-.11s1.95-.26,1.69-.07Zm-2.93,3.21a17.78,17.78,0,0,1-2.08.09l-.85,0,.74-.16a9.88,9.88,0,0,1,2.08-.09l1.34.07-1.23.13Zm-57,.19a1,1,0,0,1-.61,0c-.17-.08,0-.13.31-.11s.47.08.3.14Zm-23.91,1.91c-.27-.48-.41-.92-.33-1a4.55,4.55,0,0,1,1.77.6,4.3,4.3,0,0,0,1.62.58,7.66,7.66,0,0,0-1.87-1c-2.39-1-2.59-1.86-.22-.91a32.38,32.38,0,0,1,4.82,2.32c.45.4-.07.72-.77.47l-.64-.23.48.45c.47.44.45.46-.45.81-1.54.59-3.43-.31-4.41-2.09Z"/><path class="cls-1" d="M280.11,97.7c-1.63,1.14-5.74,3.74-9.12,5.78s-6.23,3.78-6.33,3.86-.13.39,0,.75l.15.61,6.38-3.83c7.64-4.6,12.7-8,12.73-8.67,0-.94-.75-.63-3.77,1.5Z"/><path class="cls-1" d="M95.92,89.33c-.1.15,1.93,2.48,5.72,6.58,6.15,6.64,14.54,16.69,22,26.35.53.68.76.85.94.69a.55.55,0,0,0,.16-.49c-.12-.34-6.57-8.61-8.43-10.81-.78-.91-3-3.56-4.93-5.9-3-3.61-14.89-16.63-15.21-16.65-.05,0-.16.09-.26.23Z"/><path class="cls-1" d="M119.09,97.14c-.21.32,7.46,9.71,8,9.74.68,0,.25-.65-2.3-3.66-1.53-1.8-3.3-4-3.92-4.76-1.11-1.45-1.46-1.72-1.74-1.32Z"/><path class="cls-1" d="M282.12,110c-2.55,1.65-6.46,4.09-8.67,5.41a42.49,42.49,0,0,0-4,2.57c0,.09.13.12.29.07.92-.3,17.53-10.61,17.54-10.88,0-.44-.75,0-5.13,2.83Z"/><path class="cls-1" d="M205.54,108.25c-.48.79-1.27,2.11-1.76,2.9-.87,1.44-1,2-.42,2.07.31,0,3.79-5.56,3.82-6.09a.36.36,0,0,0-.38-.32c-.27,0-.64.41-1.26,1.44Z"/><path class="cls-1" d="M222.05,114.31c-3.76,3.55-6.88,6.53-6.91,6.61s.23.24.58.33c.62.16.73.1,2.33-1.44.92-.89,4-3.8,6.85-6.48,4.86-4.55,5.16-4.87,4.82-5.15a1.61,1.61,0,0,0-.6-.32c-.12,0-3.31,2.9-7.07,6.45Z"/><path class="cls-1" d="M252.84,114.77c-4.23,2.75-14.69,9.07-22.94,13.84a42.92,42.92,0,0,0-4.88,3c.22.78.73.54,8.61-4,4.38-2.51,9.92-5.75,12.33-7.22,5.14-3.13,11.94-7.47,12-7.63s-.65-.67-.87-.68-2,1.17-4.2,2.61Z"/><path class="cls-1" d="M68.64,104.65c-.2.23-.2.34,0,.59s1.75,1.27,3.63,2.48c5.32,3.41,6.35,4.11,11.62,7.87,10.74,7.67,13.81,9.84,18.9,13.36,2.93,2,8,5.57,11.29,7.9s6.11,4.26,6.28,4.31a.63.63,0,0,0,.59-.21c.23-.25.22-.36-.08-.69s-10.6-7.71-16.95-12.11c-2.12-1.47-8.27-5.8-13.69-9.64s-10.57-7.45-11.48-8.05c-2.92-1.93-9.52-6.08-9.67-6.09s-.28.13-.42.28Z"/><path class="cls-1" d="M44.62,109.21a.48.48,0,0,0,.07.49c.12.15,3.17,1.93,6.76,4,6.74,3.78,16.2,8.5,16.7,8.33a.43.43,0,0,0,.3-.37c0-.3-.34-.48-5.44-2.83-4.66-2.15-8-3.87-13.17-6.85-3.05-1.75-5.14-2.84-5.22-2.72Z"/><path class="cls-1" d="M250.29,128.75c-6.27,3.83-7.63,4.79-6.7,4.75.5,0,14.17-8.4,14.11-8.64a.52.52,0,0,0-.25-.29c-.1,0-3.33,1.85-7.16,4.18Z"/><path class="cls-1" d="M291.31,134.24c-2.09.55-13.12,3.66-24.53,6.91s-24.18,6.87-28.4,8-11.93,3.49-17.17,5.17c-12.64,4.07-13.87,4.49-14,4.81-.31.69.31.66,2.65-.13,9.43-3.16,24.08-7.55,32.51-9.74,3.22-.84,15.56-4.24,27.45-7.58s22.66-6.32,24-6.65c2.32-.58,2.38-.61,2.35-1.13s-.17-.56-.53-.62a29.53,29.53,0,0,0-4.29.93Z"/><path class="cls-1" d="M75.56,125.53c-.25.22-.14.46.31.68l6.57,3c3.38,1.51,7.13,3.26,8.33,3.88a10.07,10.07,0,0,0,2.4,1c.54-.3.13-.75-1.37-1.53-1.82-1-15.58-7.13-15.9-7.14a.47.47,0,0,0-.34.12Z"/><path class="cls-1" d="M116.6,129.12a.3.3,0,0,0,0,.37l4.27,3.91c2.25,2.06,4.91,4.54,5.88,5.48a8.48,8.48,0,0,0,2,1.63c.63-.33.14-.84-7.5-7.79-2.29-2.08-4.25-3.81-4.33-3.81a.41.41,0,0,0-.29.21Z"/><path class="cls-1" d="M226.61,141.11c-4.63,2.7-10.93,6.42-14,8.28-5.08,3.05-11.16,6.64-13.47,7.94-.84.48-1.1.91-.7,1.19a4.27,4.27,0,0,0,1.69-.68c2.61-1.47,11.85-6.85,14.48-8.44,1.41-.85,6.69-3.92,11.77-6.84,7.8-4.47,9.21-5.35,9.23-5.75s-.11-.5-.27-.53-4.07,2.13-8.69,4.83Z"/><path class="cls-1" d="M216,137l-9.36,6.3c-4.36,2.94-8.81,5.91-9.91,6.61-1.9,1.21-2.27,1.59-1.82,1.9.22.15,3.44-1.89,11-7,2.83-1.92,6.72-4.49,8.67-5.75,3.2-2.08,3.51-2.32,3.31-2.68-.11-.2-.27-.38-.32-.38a17.75,17.75,0,0,0-1.54,1Z"/><path class="cls-1" d="M42.47,129.64a.35.35,0,0,0,0,.4c.66.73,11.68,4.53,31.27,10.8,3.63,1.16,9.18,3,12.35,4.18,8.88,3.2,19.51,6.67,20.57,6.72.3,0,.4-.08.37-.33s-.45-.48-1.42-.78c-4.24-1.35-12.61-4.2-18.43-6.27-3.66-1.31-10.16-3.5-14.41-4.86-14.43-4.6-23.86-7.75-27.33-9.13-2.44-1-2.78-1.05-3-.73Z"/><path class="cls-1" d="M99,137.5a65.28,65.28,0,0,0,6.86,3.64c3.76,1.86,10.58,5.48,15.1,8s8.34,4.6,8.45,4.57a.42.42,0,0,0,.23-.38c0-.48-14.9-8.66-23.25-12.76-3.72-1.82-6.91-3.33-7.08-3.34a.31.31,0,0,0-.31.25Z"/><path class="cls-1" d="M299.15,151.16c-.84.16-4.3.75-7.73,1.32-6.33,1.05-14.87,2.67-23,4.36-4.12.86-4.53,1-4.6,1.39s0,.44.32.46,4.39-.78,9.26-1.75c9.15-1.84,15.69-3,23.08-4.14,4.47-.68,5.37-1,4.89-1.62-.3-.39-.3-.39-2.2,0Z"/><path class="cls-1" d="M252.64,159.14c-.68.24-6.26.82-13.89,1.45a250.87,250.87,0,0,0-30.57,4c-3.65.64-8.11,1.36-9.93,1.61s-3.43.49-3.58.54a.46.46,0,0,0,0,.82c.43.19,4.72-.41,14.17-2,13.92-2.3,16-2.56,31.61-3.78,11.2-.89,13.65-1.25,13.68-2s-.63-.92-1.48-.62Z"/><path class="cls-1" d="M32.06,149.4c-.15.17-.18.33-.07.45.26.28,11.81,2.72,21.78,4.6,6.74,1.26,19.91,4,23.74,4.84.43.1.54.05.55-.28s-.18-.48-.51-.64c-1-.43-14.15-3.15-25.21-5.18-3.26-.6-8.91-1.72-12.54-2.49l-7-1.48a.81.81,0,0,0-.69.18Z"/><path class="cls-1" d="M112.29,153.4c-.08.11-.11.26-.06.31s5.81,1.9,11.61,3.6c4,1.17,4.42,1.23,4.47.62a29.92,29.92,0,0,0-3.59-1.14c-4.48-1.28-11.54-3.33-12-3.49a.41.41,0,0,0-.46.1Z"/><path class="cls-1" d="M84,160.1c0,.24.3.34,1.43.49,6,.75,17.13,2.47,20.45,3.16,2.15.45,2.62.49,2.64.23,0-.54-2.16-1.07-8.22-2-2-.31-5.3-.81-7.23-1.12s-4.75-.69-6.28-.83c-2.44-.24-2.78-.23-2.79,0Z"/><path class="cls-1" d="M292.08,170.15c-8.11.2-19.09.32-23.51.26-3.67,0-4.09,0-4.16.29s.2.36,3.46.52c1.94.09,6.73.13,10.61.1s10.09-.06,13.75-.06c7.85,0,8.47,0,8.5-.6,0-.37-.12-.41-1.77-.51-1-.07-4.08-.06-6.88,0Z"/><path class="cls-1" d="M118.52,164.66a.26.26,0,0,0,0,.32,75,75,0,0,0,8.41,1.15c.72-.24-.29-.5-3.62-.95-2-.26-3.8-.53-4.09-.59a.81.81,0,0,0-.68.07Z"/><path class="cls-1" d="M248.13,170.71c-2.73.11-9.64.13-11.55,0-1.65-.08-1.69-.07-1.71.39s0,.47,1.72.48l6.52,0c2.63,0,5.48,0,6.34,0,1.57-.06,2.32-.31,2.09-.72-.15-.26-.69-.29-3.41-.18Z"/><path class="cls-1" d="M31.92,163.39a20.78,20.78,0,0,0-3.39.1.4.4,0,0,0,0,.48c.16.29.8.35,5.75.51,7.42.24,11.36.5,17.06,1.12s14.3,1.3,25.24,2c7.27.46,7.8.47,7.94.16a.54.54,0,0,0,0-.54c-.12-.13-3.68-.44-9.2-.81-11.46-.77-19.89-1.46-25.68-2.1-4.45-.48-11.22-.84-17.71-.92Z"/><path class="cls-1" d="M90.82,168.05c0,.36.31.41,3.52.68,1.91.16,7.94.55,13.41.87l15.24.91c4.39.27,5.32.28,5.33.06a.62.62,0,0,0-.23-.44c-.13-.09-7.25-.56-15.84-1s-16.92-1-18.54-1.14c-2.84-.28-2.94-.27-2.89.09Z"/><path class="cls-1" d="M215.43,177.8c0,.22,2.6.42,14.52,1.08,8,.44,14.58.77,14.63.72s0-.22,0-.4-1.71-.39-14.62-1c-12-.56-14.52-.63-14.53-.41Z"/><path class="cls-1" d="M256.19,179.56c-3.05-.07-3.86,0-3.77.28,0,.1,5,.45,11.19.8s12.59.78,14.39,1c4.82.54,19.9,1.56,20.14,1.35.61-.53-.35-.69-7-1.15-3.67-.25-9.42-.68-12.74-1-7-.57-18-1.23-22.25-1.32Z"/><path class="cls-1" d="M132.87,176.42c-.58,0-1.05.12-1.05.24s.46.2,1.52.16c.83,0,2,0,2.49,0s1-.05,1-.16-1.62-.28-3.93-.23Z"/><path class="cls-1" d="M108.89,175.76c-7-.24-12.75-.39-12.82-.33s-.06.18.05.27,6.7.42,14.69.74c12.73.5,14.52.54,14.53.28s-.14-.39-16.45-1Z"/><path class="cls-1" d="M83.36,175.57c-1.42,0-12.73-.36-25.14-.82-15.49-.58-22.62-.78-22.77-.64a.25.25,0,0,0,0,.4c.23.26,46.73,2.07,50.78,2,3.21-.07,3.39-.1,3.41-.53s-1.37-.43-6.26-.38Z"/><path class="cls-1" d="M104.94,182.86c-1.1.1-4.84.37-8.3.59-8,.52-9.7.69-9.65.94s-.23.26,5.43-.11c4.41-.29,12.42-.77,15.44-.92.94-.05,1.34-.15,1.35-.34,0-.35-1.49-.41-4.27-.16Z"/><path class="cls-1" d="M67.85,183.62c-6.77-.07-28.55,0-31.08.13-2.3.1-6.67.39-7.94.53-.7.08-1,.46-.61.73a23,23,0,0,0,3.23-.12c1.7-.13,4.29-.28,5.78-.33,4.44-.15,23.81-.07,33.26.13,4.87.11,9.07.13,9.33,0s.44-.26.4-.4c-.09-.32-5.72-.64-12.37-.71Z"/><path class="cls-1" d="M205.71,190.35c0,.36.39.4,8.34.89,4.55.29,10.18.71,12.5.94,5.75.58,18.64,2,21,2.4,2.71.4,3.31.41,3.32.07a.55.55,0,0,0-.14-.41c-.24-.16-4.21-.69-10.53-1.41-11.91-1.35-16.68-1.78-25.57-2.32s-9-.53-8.95-.16Z"/><path class="cls-1" d="M117.41,188.79c-7.45,1.15-14.07,2-21.24,2.7-3.87.38-9.48,1-12.52,1.31-8.18.92-9.06,1-17.08,1.6-7.86.58-12.3,1-16.75,1.63-2.87.4-3.42.56-3.11.9a6.09,6.09,0,0,0,2.5-.15c3.24-.51,9.53-1.15,14.81-1.51,8.79-.6,12.51-.92,20.06-1.74,4.2-.46,10.15-1.08,13.21-1.38,5.77-.57,10.67-1.21,19.38-2.51,6.32-.94,6-.88,6-1.21s-.58-.37-5.29.36Z"/><path class="cls-1" d="M258.61,195.49c-.2.12-.23.23-.08.39s5.81,1,18.3,2.45c14.68,1.71,20.49,2.57,26.8,3.94a36.55,36.55,0,0,0,4.09.76.43.43,0,0,0-.14-.76c-.7-.24-5-1.14-7.95-1.68-4.93-.87-12.35-1.87-21.68-2.9-5.57-.62-17.56-2.07-18.44-2.24a1.82,1.82,0,0,0-.9,0Z"/><path class="cls-1" d="M113.29,196c-1.67.36-11.42,2.14-11.66,2.13,0,0-.1.13-.11.29a.29.29,0,0,0,.26.31c.31,0,8.22-1.37,11.27-2,2.4-.48,3-.68,2.84-.95s-.53-.26-2.6.19Z"/><path class="cls-1" d="M223.47,204a.31.31,0,0,0,0,.34c.32.35,23.43,5.12,42.76,8.82,18.9,3.61,28.91,5.81,31.73,7,.92.38,1.18.33,1.21-.24,0-.29-.28-.48-1.32-.86-3-1.1-12-3.07-25.28-5.55-17.45-3.27-21.86-4.11-28.92-5.54-4.13-.84-10.18-2.1-13.46-2.81-6.5-1.41-6.48-1.41-6.68-1.12Z"/><path class="cls-1" d="M91.76,199.05c-1.81.34-3.34.66-3.41.72s-.06.19.05.3a34.5,34.5,0,0,0,7.08-1.1c.29-.21.16-.55-.19-.53-.14,0-1.72.28-3.53.61Z"/><path class="cls-1" d="M80.39,200.94c-4.13.56-21.76,3.37-25.49,4.06-8.34,1.55-8.34,1.55-8.35,1.82a.32.32,0,0,0,.32.3c.19,0,3.05-.49,6.37-1.11,4.68-.87,23.83-3.92,28.46-4.52.46-.06.76-.22.77-.4s-.54-.36-2.08-.15Z"/><path class="cls-1" d="M104.52,208.79c-4.08,1.17-11.36,3.35-14.22,4.26-.2.06-.22.15-.07.31s1.72-.22,6.12-1.55c3.26-1,7.7-2.26,9.86-2.83,2.52-.67,3.93-1.13,3.94-1.3a.35.35,0,0,0-.18-.33c-.11,0-2.56.61-5.45,1.44Z"/><path class="cls-1" d="M216.65,213.15c-.07.17-.1.35-.06.39s9.42,2.21,13.92,3.15c1.89.4,2.71.5,2.87.35.47-.43-.24-.68-4.49-1.55-5.13-1-11.29-2.38-11.77-2.54a.36.36,0,0,0-.47.2Z"/><path class="cls-1" d="M243.67,219.11a.38.38,0,0,0,.05.42c.28.31,11.19,3.27,22.86,6.21s18,4.66,23.85,6.4c2.34.7,4.44,1.29,4.66,1.3.6,0,.54-.54-.08-.81-2.19-.95-12.95-3.91-27.3-7.52-5.63-1.41-13.25-3.38-16.93-4.38S244,218.91,244,218.9a.46.46,0,0,0-.28.21Z"/><path class="cls-1" d="M78.91,215c-1.56.36-4.26,1-6,1.48l-16.51,4.4c-14.55,3.87-17.76,4.77-23.92,6.68-4.43,1.38-4.75,1.5-4.76,1.8,0,.5.88.33,4.86-.91,6.3-1.95,9.7-2.9,20.44-5.72,5.33-1.4,12.41-3.27,15.74-4.17s7.86-2.05,10.08-2.57c3.08-.71,4-1,4.11-1.27.12-.52-.86-.45-4.09.28Z"/><path class="cls-1" d="M101.31,217.81C89,222,63.57,231.4,54.67,235c-1.79.73-5,2-7.15,2.69-2.38.83-3.88,1.46-3.89,1.63a.3.3,0,0,0,.29.29c.5,0,7.18-2.37,11.4-4.08,6-2.44,10-3.95,21.14-8,16.06-5.83,19.79-7.15,25.31-8.93,4.33-1.4,5.16-1.73,5.18-2.06a.44.44,0,0,0-.28-.46c-.16,0-2.56.72-5.36,1.67Z"/><path class="cls-1" d="M221.63,230.25c-.2.29.14.47,2,1.05,2.92.91,6.35,2.25,13.13,5.14,9.28,4,13.54,5.68,21.9,8.84,15.95,6,21.84,8.4,28.22,11.32a31.55,31.55,0,0,0,4,1.67c.33-.31-.3-.78-2.29-1.73-4.32-2.07-9.95-4.38-20.29-8.32-18-6.86-22.51-8.64-29.59-11.66-10.34-4.4-16.78-6.78-17.1-6.31Z"/><path class="cls-1" d="M101.61,228.51a24.38,24.38,0,0,0-4,2.19c0,.16,0,.3.11.31s1.83-.78,3.82-1.74,3.86-1.81,4.12-1.89c.52-.18.61-.76.11-.77a40,40,0,0,0-4.21,1.9Z"/><path class="cls-1" d="M113.3,231.55c-.83.52-2.4,1.46-3.46,2.08a107.23,107.23,0,0,0-11,7.06,30,30,0,0,0-4.07,3.25c0,.62.78.23,3.36-1.59a89.53,89.53,0,0,1,9.75-6.29c5.81-3.24,7.61-4.42,7.56-4.9-.07-.71-.59-.61-2.19.39Z"/><path class="cls-1" d="M81.11,236.77a83,83,0,0,0-9.68,5.32c-1.68,1.06-2.5,1.7-2.52,1.95,0,.58.3.47,2.13-.73a102.36,102.36,0,0,1,11-6.07,31.58,31.58,0,0,0,4.64-2.53c0-.57-1.17-.13-5.57,2.06Z"/><path class="cls-1" d="M218.56,244.87c-.2.45-.05.62,1.31,1.45a91.79,91.79,0,0,1,8.49,6.58c1,.94,2.78,2.46,3.83,3.38s4.28,4,7.16,6.73,6.06,5.8,7.05,6.71,2.7,2.49,3.76,3.51c1.93,1.85,2.65,2.22,2.69,1.39,0-.41-1.58-2-7.35-7.27-1.72-1.57-4.87-4.51-7-6.52s-4.61-4.3-5.54-5.1-2.42-2.11-3.31-2.92a94.89,94.89,0,0,0-9.48-7.34c-1.22-.73-1.51-.84-1.62-.6Z"/><path class="cls-1" d="M240.67,247.42a40.52,40.52,0,0,0,3.91,2.65l8.27,5.21c4.86,3,8.52,5.54,10.53,7.14,1.38,1.11,1.63,1.24,1.65.85s-.16-.42-2.78-2.36c-2.92-2.15-5.23-3.66-12.18-8-3.31-2.05-6.68-4.16-7.51-4.71-1.54-1-1.87-1.16-1.89-.83Z"/><path class="cls-1" d="M111.61,248.74l-5.5,5.91c-.6.65-.89,1.12-.82,1.33a.34.34,0,0,0,.36.26c.14,0,2.71-2.71,5.74-5.93,5.18-5.54,5.88-6.44,5-6.48-.13,0-2.29,2.2-4.82,4.91Z"/><path class="cls-1" d="M82.07,250.27C74.94,254,71.36,256,68,258.14c-1.15.72-2.12,1.34-2.17,1.39s.09.28.3.51l.38.43,3.37-2c3.43-2.07,8.06-4.57,14.65-7.94,2.06-1.05,4.08-2.17,4.5-2.49.66-.5.73-.63.51-.92a.84.84,0,0,0-.48-.35c-.13,0-3.25,1.57-7,3.53Z"/><path class="cls-1" d="M214.15,254c-.07.15.39.82,1.09,1.59s2.65,3.54,4.42,6.23a57,57,0,0,0,3.5,5,.53.53,0,0,0,.53-.11c.31-.28.31-.28-3.29-5.47-2.78-4-5.56-7.51-6-7.53a.39.39,0,0,0-.29.26Z"/><path class="cls-1" d="M110.2,261.61c-2.59,2.95-4.09,4.81-7.16,8.89-2.57,3.4-3.85,5-8.31,10.51-2.88,3.55-3.44,4.33-3.25,4.59a.83.83,0,0,0,.46.32c.5,0,7.74-8.77,14.17-17.19,1.28-1.68,3.46-4.34,4.82-5.89,2.54-2.91,2.92-3.62,2-3.79-.32-.06-1,.53-2.74,2.56Z"/><path class="cls-1" d="M96.85,265.39c-2.18,2.39-5.07,5.58-6.44,7.11s-3.68,4-5.13,5.5a33,33,0,0,0-2.71,3c-.36,1.26,1.89-.79,7-6.41l7.54-8.28a62.51,62.51,0,0,0,4.26-5c0-.77-.88.05-4.52,4.05Z"/><path class="cls-1" d="M209,282.07c-.11.11.11.63,1.15,2.73.7,1.43,1.8,3.76,2.43,5.16,1.83,4.05,3.53,7.23,3.94,7.32s.33-.29-.25-1.33c-1.35-2.41-1.94-3.58-3.39-6.73a70.05,70.05,0,0,0-3.62-7.25.3.3,0,0,0-.26.1Z"/><path class="cls-1" d="M190.84,278.1c-.16.11,0,.59.51,1.75.39.88,1.12,2.69,1.62,4a62,62,0,0,0,3.68,8.63,72.46,72.46,0,0,0,4.7,7.39.75.75,0,0,0,.53.07c.55-.11.28-.69-1.72-3.72A43.64,43.64,0,0,1,194.83,286c-1.41-3.75-3.24-7.91-3.52-8a.61.61,0,0,0-.47.09Z"/><path class="cls-1" d="M131.14,278c-.14.16-.75,1.73-3.87,9.93-.88,2.31-2.26,5.77-3.07,7.67s-1.48,3.58-1.49,3.72a.33.33,0,0,0,.57.26c.32-.3,3.11-6.85,4.61-10.83l2.73-7.17c1-2.64,1.25-3.36,1.13-3.51a.37.37,0,0,0-.61-.07Z"/><path class="cls-1" d="M169.53,282.1c-.19.12-.17,1.1.07,4.26.17,2.27.4,5.37.49,6.92a42,42,0,0,0,1,8c.45,1.68.68,2.12,1.07,2.13.65,0,.7-.25.3-1.77a50.37,50.37,0,0,1-1.19-8.35c-.33-4.63-.84-10.64-.91-10.91a.59.59,0,0,0-.87-.27Z"/><path class="cls-1" d="M148.2,280.5a27.85,27.85,0,0,0-.76,3.24c-.34,1.73-1,4.8-1.39,6.84s-1,5.16-1.34,6.93-.64,3.57-.73,4c-.14.73-.13.77.28.79.75,0,.82-.17,2-6.65.36-1.94,1.11-5.69,1.67-8.35s1.06-5.27,1.12-5.81c.1-.94.08-1-.32-1.06a.88.88,0,0,0-.56.07Z"/><path class="cls-1" d="M55.84,265.76c-1.73,1.09-2.46,1.66-2.47,1.92,0,.77.71.52,3.23-1.05s2.58-1.62,2.27-2c-.17-.21-.38-.4-.45-.4s-1.23.69-2.58,1.53Z"/><path class="cls-1" d="M225.8,272.28a1,1,0,0,0-.26.56,27.67,27.67,0,0,0,2.45,3.8c2.4,3.4,11.25,15,11.87,15.56a.52.52,0,0,0,.93-.39c0-.79-1.27-2.71-6.32-9.3-1.57-2.05-3.92-5.23-5.22-7.08-2.38-3.38-2.78-3.75-3.45-3.15Z"/><path class="cls-1" d="M182,284.64c-.26.27-.14,3.12.44,10.28.5,6.38,1,9,1.67,9,.43,0,.44-.74.07-3.34-.44-3.07-.81-7.17-1.07-11.95-.09-1.75-.2-3.38-.24-3.61-.08-.54-.55-.77-.87-.42Z"/><path class="cls-1" d="M114.79,285.93c-.5.85-2.67,5.56-2.68,5.83a.23.23,0,0,0,.3.24c.37-.05,3.2-5.72,3.07-6.12s-.44-.36-.69.05Z"/><path class="cls-1" d="M156.33,294.14c-.16.42-.89,12.73-.8,13.31s.59.75.75.13c.06-.24.29-3.29.5-6.81.39-6.27.37-6.83-.21-6.86a.29.29,0,0,0-.24.23Z"/><path class="cls-1" d="M134.22,112.39a9.74,9.74,0,0,0-.08,1c0,.17,0,1.06,0,2,0,1.16,0,1.37-.08.66-.16-1.85-.42-1.46-.35.52,0,1,0,2.85,0,4a10.89,10.89,0,0,0,.06,2.28c.07.07.14,0,.15-.2s.11-.27.24-.18.18,0,.1-.24a18.6,18.6,0,0,1-.11-2.74c0-1.83.06-2.33.24-2.2s.24-1.06,0-4.39c-.07-1-.11-1.07-.18-.51Zm-.22,7.8c-.07.16-.12.11-.12-.13s.05-.32.11-.25a.41.41,0,0,1,0,.38Zm-.1,2c-.07.16-.11.11-.11-.13s.05-.32.11-.25a.41.41,0,0,1,0,.38Z"/><path class="cls-1" d="M133.36,115.44c-.07,1.43-.06,2,0,1.23s.13-1.91.12-2.58-.06-.08-.13,1.35Z"/><path class="cls-1" d="M182.92,139.9c-.27.31-.26.32.06.09a1.13,1.13,0,0,0,.37-.33c0-.17-.15-.09-.43.24Z"/><path class="cls-1" d="M181.11,142.11c-.26.36-.3.76-.08.63s.16-.15.1-.22,0-.24.13-.38.18-.26.12-.26-.18.09-.27.23Z"/><path class="cls-1" d="M179.65,144.19a.24.24,0,0,1-.34.05c-.13-.08-.16,0-.08.11s.2.2.43,0,.37-.37.2-.38-.13.07-.21.19Z"/><path class="cls-1" d="M179.1,145.37c0,.12.07.16.19.1s.21-.15.21-.2-.08-.09-.2-.1a.19.19,0,0,0-.2.2Z"/><path class="cls-1" d="M175,150.6a12.08,12.08,0,0,0-.89,1.6c-.08.21.07,0,.32-.38a4.55,4.55,0,0,1,.88-1.08c.33-.24.74-1.34.5-1.35a11.66,11.66,0,0,0-.81,1.21Z"/><path class="cls-1" d="M174.62,150.06a.59.59,0,0,0-.14.33c0,.13.09.12.24,0s.21-.27.14-.33-.15,0-.24,0Z"/><path class="cls-1" d="M173.39,151a.53.53,0,0,0-.15.33c0,.12.09.12.24,0s.21-.27.14-.33a.16.16,0,0,0-.23,0Z"/><path class="cls-1" d="M170.76,154.21c-.19.37-.19.53,0,.64s.17.08.09,0,0-.26.16-.37a.33.33,0,0,0,.15-.47c-.11-.19-.22-.13-.39.22Z"/><path class="cls-1" d="M171.45,155.58a.23.23,0,0,0,.45.12c.07-.14,0-.26-.17-.27s-.28.06-.28.15Z"/><path class="cls-1" d="M178.36,143.67c-.26.31-.26.32.06.09s.37-.28.37-.33-.15-.08-.43.24Z"/><path class="cls-1" d="M158.36,188.42c-.18.11-.21.18-.07.19a.43.43,0,0,0,.37-.18c.16-.23.09-.24-.3,0Z"/><path class="cls-1" d="M157.12,189c-.18.1,0,.14.38.1a2.93,2.93,0,0,0,.76-.13c.17-.16-.85-.13-1.14,0Z"/><path class="cls-1" d="M154.18,191.33c-.43.25-.87.39-1,.31s-.16-.06-.08.09,0,.23-.08.22-.22.21-.23.49l0,.5.81-.36a2,2,0,0,1,1.15-.23c.28.11.3.09.1-.07s-.18-.24-.06-.28.61-1.14.37-1.14a4.42,4.42,0,0,0-1,.47Z"/><path class="cls-1" d="M147.74,192.72c-.47.22-.72.45-.64.59s.05.17-.08.08a.78.78,0,0,0-.93.35c0,.1-.14.16-.28.14s-.2,0-.14.14-.19.25-.57.18c-.09,0-.16.05-.16.17s-.12.15-.26.08-.07,0,.14.21a1,1,0,0,0,.76.25c.2,0,.31,0,.25,0-.21.19.58.69.91.58a.86.86,0,0,0,.43-.39c.1-.22.05-.27-.17-.19-.87.3-.93.27-.21-.12.43-.23.83-.6.86-.8a1.84,1.84,0,0,1,.43-.72c.2-.2.3-.37.22-.37s0-.14.11-.3c.32-.35.27-.34-.67.09Zm-.34,1.1c-.14.05-.21.17-.15.26s-.19.31-.54.48-.58.2-.5.08a.14.14,0,0,0-.12-.23c-.14,0,.07-.18.46-.37a3.07,3.07,0,0,1,.91-.33c.11,0,.08.06-.06.11Z"/><path class="cls-1" d="M154.11,192.86c.06.1-.08.11-.34,0s-.41-.09-.3.1.07.2-.07.11-.87,0-.74.26-.1.21-.32.26-.4.19-.41.29-.15.18-.33.18a2.5,2.5,0,0,0-1.83,1.11c-.19.33-.28.58-.21.58s0,.16-.15.34.45,0,1.32-.47,1.55-.69,1.48-.58a5.67,5.67,0,0,1-1.27.78c-.61.31-1.11.67-1.11.8s0,.17.12,0a.21.21,0,0,1,.29-.13c.09.07.17,0,.18-.1s.1-.16.2-.09.2,0,.21-.09.11-.15.23-.07.18.07.11,0,.11-.3.38-.4.53-.13.59,0-.15.27-.54.19c-.1,0-.16.05-.17.17s-.36.36-.79.55c-.61.28-.83.3-1,.1s-.2-.17-.11.16,0,.33,0,.25-.93.66-1,1.1c0,.27.06.28.44.12s.45-.19.06.09a1.39,1.39,0,0,1-.56.28c-.09,0-.16.08-.17.2s.1.16.24.1.09,0-.11.17c-.42.3-.5.6-.12.41.15-.08.06,0-.21.29-.44.38-.62.78-.36.79a11.89,11.89,0,0,0,1.38-.67l1.76-1c1.22-.65-.07.28-1.54,1.11s-1.53.92-1.07.94a2.46,2.46,0,0,0,1.1-.26c.51-.28.52-.28.15,0s-.4.3,0,.32a1.38,1.38,0,0,0,.75-.29c.37-.3.38-.27.26.56-.08.47-.15.89-.17.91s-.05.11-.09.2-.13.3-.22.5-.12.39-.07.45,1-.25,1.71-.75c.33-.22.46-.23.57,0s.05.19-.07.11-.23-.07-.28,0a7.58,7.58,0,0,1-1.5.87c-.8.4-1.31.58-1.15.41.35-.39.12-.47-1.42-.54-1.11,0-1.2,0-1.35.49s-.1.5.12.43.24-.17.19-.27,0-.23.14-.3.19-.05.07.12-.07.22.11.15.27-.16.26-.26.2-.18.46-.18a1.1,1.1,0,0,1,.47.05,6.82,6.82,0,0,1-1.09.62,3,3,0,0,0-1.23,1c-.17.53,0,.51,1.18-.21,1.42-.84,2-1,1.3-.43-.29.25-.57.42-.64.39-.27-.14-2.14,1.29-2.3,1.76-.23.72-.13.76.71.3.41-.23.74-.36.73-.3a3.56,3.56,0,0,1-.93.6c-.53.28-.9.6-.85.75a.52.52,0,0,1-.15.46c-.34.31,0,.27.56-.07.28-.17.51-.26.5-.2a2.72,2.72,0,0,1-.72.5c-.65.36-1.08,1.15-.47.88.13-.06.09,0-.09.14-.48.35-.74,1.12-.39,1.13a1,1,0,0,0,.56-.22c.18-.16.23-.16.13,0-.36.59.52.32,2.1-.63,2-1.18,2.46-1.45,2.14-1.16a22.88,22.88,0,0,1-2,1.23c-1.6,1-1.69,1.05-1.14,1.11,1.36.14,1.59.14,1.83,0a2.13,2.13,0,0,1,.66-.21c.33,0,.39,0,.24.17a3.8,3.8,0,0,0-.4,1.3l-.19,1.07.57-.39c1.18-.79,1.29-.91,1.46-1.45s.12-.54-.09-.42-.13,0,.08-.31a1.68,1.68,0,0,0,.36-.73c0-.24,0-.24-.34,0s-.14,0,.14-.28c.56-.57.49-.93-.1-.53-.2.14-.12,0,.19-.26.59-.52.86-1.46.36-1.2-.13.07-.09,0,.09-.23a2.94,2.94,0,0,0,.51-1.11c.17-.73.16-.75-.29-.54s-.43.18-.24,0a3,3,0,0,0,.37-.6c.1-.25.05-.31-.21-.23s-.12-.06.17-.25a3.06,3.06,0,0,0,.67-.54c.22-.29.2-.54,0-.41s0-.16.15-.49a1.81,1.81,0,0,0,.26-1,.48.48,0,0,1,.1-.49.53.53,0,0,0,.2-.4c0-.26-.07-.26-.58,0s-.58.24-.54,0a.92.92,0,0,1,.23-.44c.1-.09.11,0,0,.12s-.09.24.11.18.27-.19.24-.31.08-.17.24-.1a.37.37,0,0,0,.43-.12c.11-.16.08-.19-.1-.09s-.14,0,.09-.31c.41-.54.45-.83.09-.64-.17.1-.16,0,0-.19a.78.78,0,0,0,.19-.62c-.06-.16,0-.32.06-.34a1.19,1.19,0,0,0,.33-.61c.16-.53.15-.54-.3-.33s-.37.13.13-.3.64-.84,0-.53c-.28.13-.38.11-.37-.09s.13-.22.31-.14.25,0,.16-.12,0-.19.14-.11.29,0,.3-.13a9.55,9.55,0,0,1,.2-1l.17-.77-.53.31c-.61.36-.73.37-.72.09,0-.12.1-.16.2-.09s.2,0,.2-.08.13-.2.29-.19a.86.86,0,0,0,.54-.28c.32-.35,0-.41-.66-.12-.38.16-.37.14.06-.18.27-.19.57-.32.64-.27s.4-.4.42-.88a.34.34,0,0,0-.37-.36c-.22,0-.34.07-.28.17Zm-3.44,2.45c0,.05-.22.19-.46.3-.45.19-.45.19-.07-.09s.54-.36.53-.21Zm.3,2c0,.06-.21.2-.46.3-.44.19-.45.19-.06-.08s.53-.36.52-.22Zm.5.47a.83.83,0,0,1-.4.47c-.42.22-.32-.37.11-.62s.37-.21.29.15Zm-1.45.63c-.11.15,0,.19.18.11.48-.15.4,0-.11.28-.35.17-.4.16-.27,0s.06-.21-.22-.12-.36.09,0-.17.61-.36.41-.06Zm-.52.63c0,.05-.22.19-.46.3-.45.19-.45.19-.07-.09s.54-.36.53-.21Zm3.13,1.14s-.21.19-.46.3c-.45.19-.45.19-.06-.09s.53-.35.52-.21Zm-1.79,2.23a.45.45,0,0,1-.37.18c-.14,0-.12-.08.07-.19.39-.23.46-.23.3,0Zm-1.24,3c0,.05-.22.19-.46.3-.45.19-.45.19-.07-.09s.54-.36.53-.21Zm-1,.55c0,.05-.22.19-.46.3-.45.19-.45.19-.07-.09s.54-.36.53-.21Zm.56.56c-.12.21-.32.32-.44.24s-.09-.23.16-.39c.51-.34.56-.32.28.15Zm-.72.55a.39.39,0,0,1-.43,0c-.2-.09-.27-.05-.2.09a.23.23,0,0,1-.06.32c-.1.06-.16,0-.12-.21.06-.36.54-.68.77-.52a.19.19,0,0,1,0,.28Zm-1.63.7c.06.1,0,.29-.26.43s-.32.21-.09-.05.2-.37.14-.44-.08-.14,0-.13.16.08.22.19Zm1.31.25c-.61.43-1.83,1.07-1.55.81a11.92,11.92,0,0,1,1.95-1.16c.05,0-.13.16-.4.35Zm-1.8-.18c0,.06-.22.2-.46.3-.45.19-.45.19-.07-.09s.54-.35.53-.21Zm1.54,1.26a5.22,5.22,0,0,1-.83.56,2.41,2.41,0,0,1-.81.39,7.93,7.93,0,0,1,1.58-1,.07.07,0,0,1,.06.07ZM146,210.23c0,.05-.16.19-.36.33s-.33.21-.07-.09.44-.42.43-.24Zm3.18.15a1.17,1.17,0,0,1-.36.33c-.32.22-.33.21-.07-.09s.44-.42.43-.24Zm-.82.56a1.26,1.26,0,0,1-.37.33c-.32.22-.32.21-.06-.09s.44-.42.43-.24Z"/><path class="cls-1" d="M150.76,193.45c-.24.4-.24.4.43.1.92-.42.94-.45.32-.47a.8.8,0,0,0-.75.37Z"/><path class="cls-1" d="M172.81,196.92c-.44.62-1.6,5.64-1.3,5.66.05,0,.61-.2,1.24-.44l1.15-.45-.05-1.75c-.1-3.36-.32-4-1-3Z"/><path class="cls-1" d="M145.2,197a3.49,3.49,0,0,0-.78,1.11,2.32,2.32,0,0,1-.35.74c-.12.13-.17.28-.11.34a5.8,5.8,0,0,0,2-1.26c0-.09-.1-.1-.24,0s0-.19.35-.6c.62-.74.63-1.14,0-.69-.23.17-.29.17-.18,0,.3-.44-.09-.24-.71.37Z"/><path class="cls-1" d="M144.37,199.27a3.49,3.49,0,0,0-1.31,1.48c-.75,1.32-.75,1.32-.43,1.18.15-.06.06,0-.21.21-.43.29-.68.79-.28.57s0,.57-.44.88c-.27.19-.43.41-.35.49s0,.28-.16.45a1.32,1.32,0,0,0-.33.45c0,.08-.18.46-.35.83-.46,1-.42,1.13.17.79.29-.17.51-.26.51-.2a2.31,2.31,0,0,1-.68.47c-.78.44-1.32,1.48-.88,1.68.16.07.23,0,.18-.06s1.25-1.06,1.59-1a.67.67,0,0,0,.36-.29c.11-.15.2-.23.2-.17,0,.24,1.37-1,1.52-1.4s.08-.35-.2-.26-.23,0,.1-.27c.5-.42.68-1.09.24-.9-.13.06-.06,0,.17-.18s.38-.35.18-.69-.16-.43,0-.53.18,0,.06.13-.09.2,0,.13a1.73,1.73,0,0,0,.46-.72c.18-.45.17-.56,0-.46s-.19.08,0-.14a.92.92,0,0,0,.19-.62c0-.2,0-.31.13-.25s.31-.29.5-.78c.35-.88.35-.89-.07-.78s-.38,0-.28-.1.15-.27-.62.1Zm.53.15a1.79,1.79,0,0,1-.66.39l-.67.29.52-.39c.5-.36.82-.48.81-.29Zm-.78,2.36a1.12,1.12,0,0,1-.18.41c-.11.09-.08-.31.05-.66.07-.19.17,0,.13.25Zm-2.44,2.89a.9.9,0,0,1-.48.28c-.12,0,0-.14.19-.29.51-.35.61-.34.29,0Zm.16.6a2.56,2.56,0,0,1-.67.48l-.67.4.62-.49c.64-.5.73-.54.72-.39Z"/><path class="cls-1" d="M172.85,202.43a1.78,1.78,0,0,1-.86.24c-.08,0-.15,0-.15.12s-.09.17-.19.1-.43.35-.48,1.26c0,.66,0,.76.32.69s.34-.09,0,.12a.73.73,0,0,0-.38.49c0,.34.07.36.66.11.42-.17.42-.17,0,.11a1.55,1.55,0,0,1-.56.28c-.09,0-.17.21-.18.49s0,.5.05.5a9.87,9.87,0,0,0,2.12-1.16,12.22,12.22,0,0,0,.44-3.69,5.84,5.84,0,0,0-.83.34Zm.3,2a1.13,1.13,0,0,1-.5.18c-.11,0-.06-.09.11-.19a1.27,1.27,0,0,1,.5-.18c.11,0,.06.1-.11.19Z"/><path class="cls-1" d="M165.88,204.57c-3.51,1.76-3.51,1.76-3.54,2.28s0,.45.61.19.36,0-.4.41c-.26.14-.36.47-.4,1.36-.09,1.89-.07,2,.24,2.17s1.53-.71,1.54-1.11-.08-.35-.65-.1c-.41.17-.4.16.05-.17s.42-.4.28-.5c-.49-.34-.19-.57.62-.47a3.11,3.11,0,0,0,1.74-.31c.49-.22.83-.33.76-.23a2,2,0,0,1-.74.39c-.34.13-.56.3-.5.41.19.34,1.07.23,2.09-.27.75-.37,1-.62,1-1s0-.43-.44-.26l-.45.2.46-.34c.42-.3.47-.49.5-1.87a5.63,5.63,0,0,1,.17-1.66c.24-.22.21-.47-.07-.48a21,21,0,0,0-2.91,1.32Zm1.68.29a1.69,1.69,0,0,1-.62.38c-.77.36-.82.2-.05-.17s.67-.32.67-.21Zm-1.21.16a6.91,6.91,0,0,1-1.43.73,6.11,6.11,0,0,1-1.42.54,24,24,0,0,1,2.82-1.36s0,0,0,.09Zm-.63.75c0,.06-.27.22-.62.38-.77.36-.82.2,0-.17s.68-.32.67-.21Zm1.74.67c-.21.18-4.66,2.09-4.65,2a40.27,40.27,0,0,1,4.56-2.06c.1,0,.14,0,.09.06Z"/><path class="cls-1" d="M138.87,203a.27.27,0,0,1-.36.08c-.13-.09-.15,0-.06.12s.07.24-.17.14-.28-.06-.17.31c.21.66.5.66.82,0s.23-1-.06-.64Z"/><path class="cls-1" d="M138.23,204.53a.87.87,0,0,0-.16.55c0,.38,0,.38.21-.05s.2-.73-.05-.5Z"/><path class="cls-1" d="M172.56,206.45a7,7,0,0,0-1.16.64c-.42.34-.52,1.15-.16,1.31.18.09.17.11,0,.11-.49,0-.33,2.8.17,2.82a2.3,2.3,0,0,0,1.3-1.11c0-.11-.14-.16-.34-.12s-.14,0,.11-.13a1,1,0,0,0,.51-.68c0-.26.06-.58.08-.72s-.14-.31-.36-.39c-.38-.15-.38-.15,0-.15s.46-.16.61-.91a3.16,3.16,0,0,0,.11-1,3,3,0,0,0-.88.3Zm-.44,1.85a.42.42,0,0,1-.38,0c-.16-.07-.12-.11.12-.11s.32.05.26.11Zm.53.5a1.64,1.64,0,0,1-.57.39c-.4.16-.39.14.06-.19s.71-.47.51-.2Z"/><path class="cls-1" d="M167.49,208.86c-.76.4-.78.44-.39.66a1,1,0,0,0,1.46-.65c0-.55-.05-.55-1.07,0Z"/><path class="cls-1" d="M134.2,209.72l-.6.89.68-.35a1.27,1.27,0,0,0,.76-.88c.12-.78-.17-.67-.84.34Z"/><path class="cls-1" d="M149.27,213.41c-.7.42-1.08.79-1.09,1.05s.07.35.23.27c.36-.19,0,.13-.71.61l-.55.38.79.41c.68.35.84.37,1.22.15s.44-.24.07.14-.27.7.32.45c.38-.16.39-.16.08.07s-.31.36-.15,1a1.75,1.75,0,0,0,.31.75,16,16,0,0,0,1.8-1.12c.93-.61,2.63-1.68,3.76-2.35,1.64-1,2-1.26,1.71-1.39a2.05,2.05,0,0,0-1.84.06c-.51.27-.52.27-.15,0s.37-.3-.45-.34a2.51,2.51,0,0,0-1.5.37c-.45.28-.56.31-.36.08s.2-.33-.59-.36a2.2,2.2,0,0,0-1.17.19c-.23.19-.22.16,0-.13s.26-.35-.14-.27-.41,0-.33-.17c.23-.52-.28-.46-1.28.16Zm.94.22a2.56,2.56,0,0,1-.67.48l-.66.4.62-.49c.64-.5.72-.54.71-.39Zm4.36.59c0,.05-.22.19-.46.29-.45.2-.45.19-.07-.08s.54-.36.53-.21Zm-2.81.48a2.56,2.56,0,0,1-.67.48l-.67.4.62-.49c.64-.5.72-.55.72-.39Zm1.79.07s-.22.19-.46.29c-.45.2-.45.19-.07-.08s.53-.36.53-.21Zm-1,.55a1.12,1.12,0,0,1-.47.29c-.44.2-.44.19-.06-.08s.53-.36.53-.21Zm-2.21.29s-.16.19-.36.33-.33.22-.07-.09.44-.41.43-.24Zm.57.63s-.22.19-.46.29c-.45.2-.45.19-.07-.08s.54-.36.53-.21Z"/><path class="cls-1" d="M146.62,215c-.78.49-.85.71-.23.73s1.46-.6,1.3-.91-.31-.3-1.07.18Z"/><path class="cls-1" d="M132.42,214.45c-.26.3-.25.3.08.07s.46-.4.28-.4-.2.14-.36.33Z"/><path class="cls-1" d="M145,217.61c-.7.14-.92.44-1,1.33s.17,1.13.46.7a6.92,6.92,0,0,1,1-.79c.47-.34.78-.5.68-.35s-.1.25.2.16.39-.11,0,.16c-.21.14-.46.23-.53.18s-.5.48-.84,1.46l-.24.69.16-.76c.15-.73.14-.76-.28-.56s-.45.39-.48,1,0,.76.21.66a2.22,2.22,0,0,1,.84-.17,2.84,2.84,0,0,0,1.07-.31c.27-.16.47-.24.47-.19s.23-.12.52-.38a1.89,1.89,0,0,0,.46-2c-.22-.63-1.64-1.1-2.72-.88Z"/><path class="cls-1" d="M134.34,219.37c-.46,1.15-2.44,6.83-2.45,7s.14.23.44.16a3.91,3.91,0,0,1,.79-.08.49.49,0,0,0,.44-.43c.1-.44.1-.44.11,0s0,.47,1.14.39c.62,0,1.17-.1,1.19-.12s-.21-1.13-.53-2.46-.63-2.62-.68-2.88-.2-.43-.42-.37-.28.07,0-.15.31-.4.2-.84-.18-.48-.26-.29Zm.27,2.85c-.06.14-.1,0-.08-.25s.06-.39.11-.25a.72.72,0,0,1,0,.5Zm-.24,1c-.06.14-.1,0-.09-.25s.06-.39.11-.24a.75.75,0,0,1,0,.49Zm-.25,1c-.06.13-.1,0-.08-.25s.06-.39.11-.25a.72.72,0,0,1,0,.5Zm-.24,1c-.06.14-.1,0-.09-.25s.06-.39.11-.24a.75.75,0,0,1,0,.49Z"/><path class="cls-1" d="M145,223.43c-.69.08-.7.11-.68.88,0,.44,0,1,.07,1.2a8.22,8.22,0,0,1,0,.89c0,.47,0,.46.88-.26l.88-.74-.88.85c-.66.65-.85,1-.79,1.31s.19.4.33.33.15,0,0,.13a2.75,2.75,0,0,0,0,1.75,1.82,1.82,0,0,0,.72-.22c.64-.27.44,0-.34.39-.3.16-.31.36-.09,2.64.26,2.76.23,2.73,2,2.2,1.4-.41,1.89-.73,2.37-1.58s.65-2.47.16-2.63c-.32-.1-.32-.1,0-.11s.35-.17.37-.53c0-.52,0-.52-.44-.17s-.44.33,0-.15a1.24,1.24,0,0,0,.39-1.32c-.06-.46-.19-.83-.29-.83s-.15.06-.09.17-.16.26-.5.37a1.38,1.38,0,0,0-.83.69c-.26.6-.52.64-.3,0,.09-.23.08-.37,0-.32a.82.82,0,0,1-.56-.09c-.33-.14-.29-.17.2-.16.7,0,2.13-.78,2.15-1.2a4.42,4.42,0,0,0-.69-1.92,3.57,3.57,0,0,0-.84.52c-.47.37-.62.59-.47.69s.24.07.24-.05.31-.33.67-.49c.65-.28.64-.27-.16.39-.46.36-1.11.84-1.45,1.05-.58.37-.58.37.06-.16.37-.31.61-.62.54-.71s-.5-.18-.39,0-.14.27-.44.38l-.55.21.62-.52c.34-.28,1-.78,1.42-1.09.78-.56.78-.58.43-1l-.35-.47-1.13.91c-.62.51-1,.75-.81.54s.27-.36-.09-.24-.33.06-.2-.06a1.13,1.13,0,0,1,.49-.24c.42-.08,1.45-.94,1.35-1.13s-.64.17-1.31.59a6,6,0,0,1-1.22.65,5.83,5.83,0,0,1,1.08-.76l1.08-.65-1,0a14.17,14.17,0,0,0-1.69.07Zm.91,1.75a3.37,3.37,0,0,1-1.36.63c-.09,0,.16-.18.55-.37.8-.38.82-.39.81-.26Zm.32,1.79a3.92,3.92,0,0,1-.57.51c-.31.25-.43.31-.28.12s.2-.34.1-.34,0-.09.14-.19c.31-.18.61-.23.61-.1Zm0,.94c-.09.12,0,.29.12.4s.19.19-.09.18a.37.37,0,0,1-.16-.68c.21-.2.29-.13.13.1Zm1.28.72a1.75,1.75,0,0,1-.61.38c-.78.36-.82.2,0-.18s.67-.32.66-.2Z"/><path class="cls-1" d="M140.3,226.54a6.37,6.37,0,0,0-1.73,1.81c0,.2.05.38.12.38a9.35,9.35,0,0,0,2.63-1.67c0-.09.17-.24.51-.34.52-.15.62-.29.64-.89,0-.43-.06-.71-.21-.72a10.59,10.59,0,0,0-2,1.43Zm.59.2c0,.29,0,.5-.11.5s-.16-.23-.14-.51.06-.49.1-.49.11.22.15.5Z"/><path class="cls-1" d="M192.7,218.06c-.22.12-.22.45,0,1.66.22,1.43.69,6.54,1,11a15.15,15.15,0,0,0,.27,2.36c.19.34,1.18.06,1.2-.34s.26-.63.5-.27,1.51-.35,2.22-1.61c1.13-2,1.37-3.88.87-6.78-.52-3.05-1.47-4.84-3-5.63a4.85,4.85,0,0,0-3-.43Zm2.49,9.27c0,.49,0,.51-.33.2s-.24-.43-.15-.55c.25-.37.51-.19.48.35Zm-.26,3c-.48.49-.68.27-.63-.7l0-.84.47.59c.44.56.45.61.11.95Z"/><path class="cls-1" d="M157.23,204.11c-.18.1-.21.18-.07.19a.46.46,0,0,0,.37-.18c.16-.24.09-.24-.3,0Z"/><path class="cls-1" d="M158,208.4s.12.14.3.21.25,0,.19-.07-.49-.29-.49-.14Z"/><path class="cls-1" d="M183.21,217.76a3.84,3.84,0,0,0-1,.43,10,10,0,0,0-.17,3.56c.08.42.16.46,1,.38a6.24,6.24,0,0,0,3.43-1.45,2.28,2.28,0,0,0-.31-2.63,3.07,3.07,0,0,0-2.95-.29Zm.41,1.54c0,.27-.65.94-.88.93s0-.26.19-.59c.39-.6.7-.75.69-.34Z"/><path class="cls-1" d="M174,217.4c-.2.11-.22.2-.07.31a.4.4,0,0,0,.63-.25c0-.23-.21-.25-.56-.06Z"/><path class="cls-1" d="M172.15,220.34c-.06.21,0,.39.06.4s.19-.18.2-.39,0-.4-.06-.4-.13.17-.2.39Z"/><path class="cls-1" d="M171.74,221.77c-.14.45-.62,2-1.08,3.43a16,16,0,0,0-.72,2.73,8.91,8.91,0,0,0,1.92.06c1.55-.05,1.8-.1,1.73-.38-.27-1-1.05-5.71-1-6.14,0-.85-.53-.64-.82.3Z"/><path class="cls-1" d="M159.85,218.51a7.64,7.64,0,0,0-2.78,1.72c-.21.35-.2.4,0,.3s.07,0-.2.23a1.56,1.56,0,0,0-.54.67,1.38,1.38,0,0,1-.29.58c-.56.66-1.05,2.9-.64,2.92a1.72,1.72,0,0,0,.68-.33c1.81-1.24,2-1.33,2-1s-.06.26-.1.22-.24,0-.43.2a12.84,12.84,0,0,1-1.31.81c-.9.49-1,.59-1,1.31-.05,1,.15,1.11.89.63.47-.3.45-.26-.09.18l-.68.57.27,1.15a4.9,4.9,0,0,0,1.79,2.8,4.72,4.72,0,0,0,2.27.54c2.18.05,4.25-2.58,4.63-5.89.14-1.13.13-1.14-.32-1l-.46.2.45-.3c.5-.33.73-1.4.26-1.16-.19.1-.19.07,0-.14a2,2,0,0,0,.15-1.74c-.13-.23-.25-.22-.74,0s-.55.28-.18,0a6,6,0,0,1,.68-.45.41.41,0,0,0,.15-.48c-.09-.27-.21-.3-.55-.15s-.42.17-.09-.07.47-.59.1-.92c-.19-.18-.39-.2-.73-.05l-.47.2.47-.34.46-.34-.56-.37a6.27,6.27,0,0,0-3.08-.55Zm1.08.19s-.13.12-.31.18-.26,0-.18-.09.5-.25.49-.09Zm.8,0c0,.06-.22.19-.46.3-.45.19-.45.19-.07-.09s.54-.35.53-.21Zm-2,.51s-.21.19-.46.29c-.45.2-.45.19-.06-.08s.53-.36.52-.21Zm.38.41c0,.06-.22.19-.46.3-.45.19-.45.19-.07-.09s.54-.35.53-.21Zm-1.81.32c0,.05-.21.19-.46.29-.44.2-.45.2-.06-.08s.53-.36.52-.21Zm4.18.19c0,.05-.22.19-.46.3-.45.19-.45.19-.07-.09s.54-.35.53-.21Zm-3.39,0c0,.06-.22.19-.46.3-.45.19-.45.19-.07-.09s.54-.35.53-.21Zm3.56.57s-.22.19-.46.29c-.45.2-.45.2-.07-.08s.54-.36.53-.21Zm-4.58,0c0,.06-.22.19-.46.3-.45.19-.45.19-.07-.09s.54-.35.53-.21Zm2.77.33s-.22.19-.46.3c-.45.19-.45.19-.07-.09s.54-.35.53-.21Zm.48.47c-.54.36-1.13.65-1.12.54a5.56,5.56,0,0,1,1.43-.84c.06,0-.08.14-.31.3Zm1.5-.18c0,.06-.27.22-.61.38-.78.36-.82.2-.06-.17s.68-.32.67-.21Zm-3.61.63a1.21,1.21,0,0,1-.47.3c-.44.19-.44.19-.06-.09s.53-.35.53-.21Zm2.18.1c0,.06-.27.22-.61.38-.78.36-.82.2,0-.17s.67-.32.66-.21Zm1,.65a2.15,2.15,0,0,1-.57.38l-.56.3.5-.39c.47-.38.64-.46.63-.29Zm-5.1.4c-.53.37-1.13.65-1.12.54a5.54,5.54,0,0,1,1.43-.83c.06,0-.08.13-.31.29Zm1.4-.06c-.17.24,0,.25.51,0,.21-.1.39-.14.39-.09a1.59,1.59,0,0,1-.6.38c-.55.27-.58.26-.51,0s.1-.45.22-.45.06.08,0,.2Zm1.24,1.13a3.57,3.57,0,0,1-.77.58l-.77.49.72-.58c.7-.57.83-.64.82-.49Zm3.07.39c-.54.37-1.13.66-1.12.54a5.84,5.84,0,0,1,1.43-.83c.06,0-.08.14-.31.29Zm-4.72.73s-.16.19-.36.33-.33.22-.07-.09.44-.41.43-.24Zm4.77.22c0,.06-.21.2-.46.3-.45.2-.45.19-.06-.08s.53-.36.52-.22Zm1,.07a2.78,2.78,0,0,1-.67.48l-.67.39.62-.48c.64-.5.72-.55.72-.39Zm-3,0a1.22,1.22,0,0,1-.46.3c-.45.19-.45.19-.07-.09s.53-.35.53-.21Zm-3.6.23s-.16.19-.36.33-.33.22-.07-.09.44-.41.43-.24Zm4.17.4a1.12,1.12,0,0,1-.47.29c-.44.2-.45.19-.06-.08s.53-.36.53-.21Zm1,.24c0,.05-.16.19-.36.33s-.33.22-.07-.09.44-.41.43-.24Zm-3.19.05s-.22.19-.46.3c-.45.19-.45.19-.07-.09s.54-.35.53-.21Zm.78.44a1.85,1.85,0,0,1-.62.38c-.77.35-.82.19-.05-.18s.67-.32.67-.2Zm1.59.07a2.47,2.47,0,0,1-.47.42l-.47.35.4-.42c.37-.4.54-.51.54-.35Zm-3.39,0c0,.05-.22.19-.46.3-.45.19-.45.19-.07-.09s.54-.35.53-.21Zm-1,.55a1.22,1.22,0,0,1-.46.3c-.45.19-.45.19-.07-.09s.53-.35.53-.21Zm3.38.12s-.78.75-1.72,1.57l-1.71,1.52,1.67-1.58c1.52-1.44,1.76-1.65,1.76-1.51Zm-3.42.6a1.23,1.23,0,0,1-.5.17c-.11,0-.06-.09.11-.19a1.27,1.27,0,0,1,.5-.18c.11,0,.06.1-.11.2Zm-1,.31a.54.54,0,0,1-.46-.15c-.14-.16-.07-.18.26-.07s.35.18.2.22Z"/><path class="cls-1" d="M143,240.29c-.82,0-3.19,0-5.27,0-3.76-.1-3.77-.1-1.3.12a97.46,97.46,0,0,0,11,.15l1.49-.1-2.18-.1c-1.21,0-2.86-.07-3.69,0Z"/><path class="cls-1" d="M133.79,241.06a1.43,1.43,0,0,0,.49.22c.11,0,.07-.09-.09-.21a1.28,1.28,0,0,0-.49-.22c-.1,0-.06.09.09.21Z"/><path class="cls-1" d="M135,241.59a1.87,1.87,0,0,0,.49.44c.27.19.45.26.38.14s-.87-.73-.87-.58Z"/><path class="cls-1" d="M133.5,238a.42.42,0,0,0,.38,0c.06-.06-.06-.11-.26-.11s-.28,0-.12.11Z"/><path class="cls-1" d="M131.93,242.64c0,.05.12.14.3.22s.25,0,.19-.08-.48-.29-.49-.14Z"/><path class="cls-1" d="M146.54,194.24c-.17.1-.22.19-.11.19a1.09,1.09,0,0,0,.5-.17c.17-.1.22-.19.11-.2a1.27,1.27,0,0,0-.5.18Z"/><path class="cls-2" d="M151.13,227c-1.6-.1-3.44-.22-5.52-.38l-.16-.18c0-.13-.33-1.14-.86-3a12.8,12.8,0,0,1-.56-3.08,2,2,0,0,0,0-.38,4.9,4.9,0,0,0-.18-1.09,4.34,4.34,0,0,1-.19-1c-.35-1.16-.78-2.91-1.28-5.27a3.14,3.14,0,0,1-.19-.68.58.58,0,0,0-.41-.45,9.39,9.39,0,0,0-.75,2.71.75.75,0,0,0-.12.41,3.09,3.09,0,0,0,.12.66,2.1,2.1,0,0,1,.07.74,3.44,3.44,0,0,1,.26.94,6.32,6.32,0,0,0,.27,1.58A9.73,9.73,0,0,1,142,220a.64.64,0,0,1-.61.59l-1,.09q-.23,1.09-.42,2.22a12,12,0,0,0-.26,2.22,2.36,2.36,0,0,1-.94.15l-1,0q-.42-2.22-1.36-6.77c0-.05-.16-1-.49-2.86-.05-.2-.13-.49-.26-.86a6.49,6.49,0,0,0-.56,1.8q-.53,1.85-1.32,5.49a1,1,0,0,0,.6.15.88.88,0,0,1,.53.12s0,.57,0,1.65a1.28,1.28,0,0,1-.72,1.35l-6.32.12-.11-.12,0-3.08a3.07,3.07,0,0,1,.94-.11c.05-.15.43-1.73,1.13-4.74q.53-2.37,1.61-6.88c.1,0,.17,0,.19.07a5,5,0,0,0,.47-1.7,5.6,5.6,0,0,1,.44-1.67c-.11-.45.26-1.09,1.09-1.93.87,0,2.25-.06,4.13,0,.33,0,.55.2.68.58a2.83,2.83,0,0,0,.34.87c0,.28.06.57.11.88a.76.76,0,0,0,.41.61,12.46,12.46,0,0,0,.76-2.71.85.85,0,0,0,.43-.17.78.78,0,0,1,.39-.17.5.5,0,0,1,.27.11l.6-.11a17.05,17.05,0,0,0,1.76,0,1.71,1.71,0,0,1,1.51.6,24.41,24.41,0,0,0,.79,2.6,8.75,8.75,0,0,1,.52,2.7,15.77,15.77,0,0,1,.59,2.13,14.82,14.82,0,0,0,.58,2.12l.45,0Q149.11,219.21,151.13,227Z"/><path class="cls-2" d="M162.69,217c-.05.12-.17.18-.36.17a.67.67,0,0,0-.39,0,24.06,24.06,0,0,1,.3,2.79,4.6,4.6,0,0,1-.42,2.07,4.23,4.23,0,0,1-.64,1.46,6.19,6.19,0,0,1-4.92,2.3,5.49,5.49,0,0,1-5.15-3,44.45,44.45,0,0,1-.49-5.72c-.1-2.33-.11-4.22,0-5.68a8,8,0,0,1,1.84-4.92c.05,0,.35-.28.91-.75.12.07.26,0,.41-.14s.26-.24.34-.24a2.46,2.46,0,0,1,1-.41,5.53,5.53,0,0,0,1.09-.3,7.06,7.06,0,0,1,5,2.33,2.85,2.85,0,0,0,.47.84,2.19,2.19,0,0,1,.44.85,15,15,0,0,1,.45,4.1C162.64,215.47,162.69,216.87,162.69,217Zm-4.25.49a1.44,1.44,0,0,1-.9-.19q.08-1.12,0-3.69a21,21,0,0,0-.26-3.61c0-.27-.37-.47-1-.6-.48.56-.73,1.86-.76,3.91,0,1.41,0,2.81,0,4.22a8.58,8.58,0,0,1-1.92.22,14.73,14.73,0,0,0-1.95.19,2.87,2.87,0,0,0,2.1,2.33c.51,0,.93,0,1.28,0a4.1,4.1,0,0,0,3.24-1.13A1.94,1.94,0,0,0,158.44,217.44Z"/><path class="cls-2" d="M181.1,210.33a4.84,4.84,0,0,1-1.69,3.46c.85.73,1.36,2.06,1.54,4q-.42,3.22-1.69,10.07a1.13,1.13,0,0,1-1,.45l-2.93-.48-.34-.49a26.72,26.72,0,0,1,.6-4.63,25.79,25.79,0,0,0,.56-4.47c-.07-.25-.14-.52-.2-.79a.75.75,0,0,0-.47-.57,1.14,1.14,0,0,1-.55-.24,1.2,1.2,0,0,0-.54-.25.52.52,0,0,0-.34.12,1.17,1.17,0,0,0-1.28.26l0,.08a.43.43,0,0,1-.22-.42s0-.15,0-.32a2,2,0,0,0,0-.35.52.52,0,0,0-.26-.49,6.61,6.61,0,0,0-.72,0,.42.42,0,0,0-.52.38,4.7,4.7,0,0,1-.9,0,1.3,1.3,0,0,0-.79.19q0,6,0,6.2l.83.08a.64.64,0,0,1,.57.33c0,.66-.06,1.63-.16,2.94.48,0-2.13-.05-7.82-.08A11.22,11.22,0,0,1,163,222q.15-.19.54-.12c.27.05.43,0,.51-.11q.1-1,.15-7.56a30.63,30.63,0,0,1,.75-7.48l.42-.38a.67.67,0,0,0,.22-.49,3.74,3.74,0,0,1,2.11-1c.8-.12,1.6-.24,2.4-.34a18,18,0,0,1,4.21.6Q180.43,206.62,181.1,210.33Zm-5.38-.07a2.31,2.31,0,0,0-1.58-2.11,11.85,11.85,0,0,0-1.88-.68,2.68,2.68,0,0,1-1,.1,2.38,2.38,0,0,0-1,.13,2.29,2.29,0,0,0-1.65,2.48.79.79,0,0,1,.3-.07c.45,0,.67.47.67,1.42a11.12,11.12,0,0,1,2.17.19,13.71,13.71,0,0,0,2.16.23,1.81,1.81,0,0,1,.6-.12A2.35,2.35,0,0,0,175.72,210.26Zm-3.46,10.22q-.07.87-.15,2.64a1,1,0,0,0-.43,0q-.36,0-.36-.21a.93.93,0,0,1,0-.19V220c-.1,0,.16,0,.78,0,.13,0,.2.06.2.16A1.25,1.25,0,0,1,172.26,220.48Z"/><path class="cls-2" d="M198.94,210.33a4.85,4.85,0,0,1-1.7,3.46c.86.73,1.37,2.06,1.55,4-.28,2.15-.84,5.51-1.7,10.07a1.11,1.11,0,0,1-1,.45l-2.94-.48-.33-.49a26.72,26.72,0,0,1,.6-4.63,26.83,26.83,0,0,0,.56-4.47c-.07-.25-.14-.52-.21-.79a.75.75,0,0,0-.47-.57,1.16,1.16,0,0,1-.54-.24,1.18,1.18,0,0,0-.55-.25.52.52,0,0,0-.33.12,1.17,1.17,0,0,0-1.28.26l0,.08a.44.44,0,0,1-.23-.42s0-.15,0-.32a2,2,0,0,0,0-.35.52.52,0,0,0-.26-.49,7,7,0,0,0-.72,0,.43.43,0,0,0-.53.38,4.7,4.7,0,0,1-.9,0,1.34,1.34,0,0,0-.79.19c0,4,0,6.05,0,6.2l.83.08a.63.63,0,0,1,.56.33c0,.66,0,1.63-.15,2.94.48,0-2.13-.05-7.82-.08a11.67,11.67,0,0,1,.11-3.19c.1-.13.28-.17.55-.12s.43,0,.51-.11q.1-1,.15-7.56a30.63,30.63,0,0,1,.75-7.48l.41-.38a.68.68,0,0,0,.23-.49,3.71,3.71,0,0,1,2.1-1c.81-.12,1.61-.24,2.41-.34a18.05,18.05,0,0,1,4.21.6Q198.27,206.62,198.94,210.33Zm-5.38-.07a2.32,2.32,0,0,0-1.58-2.11,12.24,12.24,0,0,0-1.88-.68,2.74,2.74,0,0,1-1,.1,2.48,2.48,0,0,0-2.67,2.61.88.88,0,0,1,.3-.07c.46,0,.68.47.68,1.42a11.09,11.09,0,0,1,2.16.19,13.7,13.7,0,0,0,2.17.23,1.81,1.81,0,0,1,.6-.12A2.35,2.35,0,0,0,193.56,210.26Zm-3.46,10.22q-.07.87-.15,2.64a1,1,0,0,0-.43,0q-.36,0-.36-.21a.54.54,0,0,1,0-.19V220c-.1,0,.16,0,.77,0,.14,0,.21.06.21.16A1.25,1.25,0,0,1,190.1,220.48Z"/><path class="cls-2" d="M208.7,209.75a1.18,1.18,0,0,1-.85.24,3.5,3.5,0,0,0-.76,0l-.33.33v5.1l.24.09c0,3.53-.06,19.09-.09,26.33-.13.22-.4.31-.81.28a3.45,3.45,0,0,0-.85,0l-4.45.06c-.16-.18-.08-.64-.08-1a4.34,4.34,0,0,0,0-1c.06-1.61.1-16.62.1-24.68a11.24,11.24,0,0,0,.09-2.59c0-1.39,0-2.28,0-2.69a1.64,1.64,0,0,0-1-.19c-.49,0-.8-.13-.93-.38a9.91,9.91,0,0,0,0-2,6.9,6.9,0,0,1,.12-2.08l2.45-.14a.32.32,0,0,0,.33.14l.38-.14c1.35,0,3.46,0,6.32,0a12.53,12.53,0,0,1,0,3.16A9.71,9.71,0,0,0,208.7,209.75Z"/><path class="cls-2" d="M151,235.13c-.64.73-1.24,1-1.8.65a4.48,4.48,0,0,1-1.73-2.06c-2.14-2.26-4.39-3.25-6.74-2.95q-3.78.51-5.77,7.38a61,61,0,0,0-.2,6.67l.18,6.87a9.39,9.39,0,0,0,1,.32v3.27a3.53,3.53,0,0,0,1.41,3.14,3,3,0,0,0,2-.57,5.92,5.92,0,0,0,.71-2.63l-.2-.13v-7.51c-.12-.21-.58-.38-1.36-.51-.59-.09-.8-.49-.63-1.22,0-.64,0-1.58.13-2.82a4.26,4.26,0,0,1,.13-1.35h11.55a.88.88,0,0,1,.19.64V243l.19,2.57a.69.69,0,0,0-.38.06.66.66,0,0,1,.38.64c0,.52-.06.75-.06.71a3.93,3.93,0,0,0-1.92.58v7.25c-.05.68-.11,1.69-.2,3a1.92,1.92,0,0,0,1.12.45,4.12,4.12,0,0,1,1.06.26l-.06,5.19c-1.63.05-3.27.07-4.94.07s-3.29,0-5-.07a.76.76,0,0,1-.2-.57,1.71,1.71,0,0,1,.1-.48,1.86,1.86,0,0,0,.1-.48c0-.3-.22-.5-.65-.58a7.25,7.25,0,0,1-5.32,2.18,9.22,9.22,0,0,1-3.27-.64c-.64-.39-1-.64-1.22-.77a1.91,1.91,0,0,1-.71-1.22,6.15,6.15,0,0,1-.77-3v-6.67c-.33-.38-.59-.53-.77-.45,0-1.67-.06-4.11-.19-7.34S127,238,127,236.42c.21,0,.34-.14.38-.42s.07-.44.07-.48c.38-.77.8-1.57,1.25-2.41a4.29,4.29,0,0,1,1.57-1.76v-.19a13,13,0,0,1,9.94-4,13.93,13.93,0,0,1,4.43.71l2.18.71c1.16-.52,2-.56,2.63-.13a10.3,10.3,0,0,1,1.8,5.39A4.87,4.87,0,0,1,151,235.13Z"/><path class="cls-2" d="M180.52,263.17l-.32.32q-11.47.06-12.89,0a9.86,9.86,0,0,1-.07-2.63,9.52,9.52,0,0,0,0-2.76,1.79,1.79,0,0,1,1-.13,2.92,2.92,0,0,0,1,0c.26-.08.39-.38.39-.89L169.55,247c-.38-.55-.74-.68-1.08-.38-1.31.08-3.31.08-6,0l-.25.26v10.71a1.54,1.54,0,0,0,1.15.38h1.22c0,1.13,0,2.91.07,5.33q-2.13-.06-6.48.1c-2.91.1-5.1.13-6.55.09a3,3,0,0,1-.51-1.75,11.24,11.24,0,0,1,.09-1.16,9.6,9.6,0,0,0,.1-1.23v-1a.58.58,0,0,1,.54-.38h.78a.57.57,0,0,0,.54-.38q0-15.07.07-16.81a5.65,5.65,0,0,1,.12,1.22c.05.51.3.73.77.64-.13.22-.08.49.13.84l.32-.45-.13-.13a3.2,3.2,0,0,0,.9-2.44q-.06-1.41-.06-2.76a21.71,21.71,0,0,1,.38-3.46,7.63,7.63,0,0,1,.64-2.76l.45-.13c-.38-.26-.45-.51-.19-.77,1.84-2.1,3.44-3.1,4.81-3a3.29,3.29,0,0,1,1.48-.38l1.54-.13a54.2,54.2,0,0,1,9.49.32,7.25,7.25,0,0,1,4.75,3.85,15.61,15.61,0,0,1,.77,5.33c0,.42-.06,2.24-.19,5.45a.8.8,0,0,1-.74.22.83.83,0,0,0-.74.23c.09.13.3.21.65.25.12,1.59.17,4.11.12,7.58a67.65,67.65,0,0,0,.13,7.57,13.06,13.06,0,0,1,1.41.32,5.06,5.06,0,0,1,.58,2.44C180.61,262.62,180.57,263.47,180.52,263.17ZM170.13,238a4.48,4.48,0,0,0-.32-4,1.85,1.85,0,0,0-1.61-.84,10.85,10.85,0,0,1-1.73.26,1.23,1.23,0,0,0-.93.74c-.19.4-.37.8-.54,1.18l.06,2.51a6.3,6.3,0,0,0,2.5.32C169.53,238,170.39,238,170.13,238Z"/><path class="cls-2" d="M208.6,258.3a13.08,13.08,0,0,1-.38,3.72,1.4,1.4,0,0,0,.19.83,2.49,2.49,0,0,1-1.62.32A8.21,8.21,0,0,1,205,263h-7.11q-1.16-2.57-3.32-7.8t-3.66-8.37l-.32.64q.06,2.12,0,5.07v4.94a1.57,1.57,0,0,0,1,.35c.55.07.87.25,1,.55-.17,2.61-.24,4.08-.19,4.43l-.26.19c-2.27,0-5.62,0-10.07-.13l-.51-.13v-4.55a.63.63,0,0,1,.84-.58,2.51,2.51,0,0,0,1.21,0q.45-17.44.51-29.13c1.16-.08,2.44-.13,3.85-.13s2.76,0,3.92.13a50.6,50.6,0,0,1,2.56,5.58q1.86,4.69,2.31,5.71.9,2.19,3,6.16a9.81,9.81,0,0,0,.88-2.37,11,11,0,0,0,.16-2.31l.39-.45c.43-.08.22-.13.69-.13a17.4,17.4,0,0,1,2.57.26c1.28.21,2.13.34,2.56.38q-.12,6-.32,16.43a.68.68,0,0,0,.58.25,2.53,2.53,0,0,0,.42-.06,2.32,2.32,0,0,1,.41-.06A.56.56,0,0,1,208.6,258.3Z"/></svg>